<?xml version="1.0" standalone="no"?><!DOCTYPE svg PUBLIC "-//W3C//DTD SVG 1.1//EN" "http://www.w3.org/Graphics/SVG/1.1/DTD/svg11.dtd"><svg t="1493952282180" class="icon" style="" viewBox="0 0 1024 1024" version="1.1" xmlns="http://www.w3.org/2000/svg" p-id="3543" xmlns:xlink="http://www.w3.org/1999/xlink" width="200" height="200"><defs><style type="text/css"></style></defs><path d="M0.347 288.311h228.928s43.235 0 51.383 12.257h-42.402v13.01l65.192 0.806s10.576 7.335 10.576 13.06l-75.755 0.812v12.22h83.93s9.743 4.886 7.37 15.477H67.996v13.88L333.58 369s1.596 10.583 1.596 13.866H67.996v13.817l268.054-0.806s1.597 8.161-2.471 13.852l-265.57 2.456v13.047l261.56-1.645s0 10.611-6.594 13.866L68.01 439.084v12.193l246.833-1.617s-0.818 13.026-9.799 15.47l-237.047 0.805v13.088l217.492-1.645s-4.817 16.267-38.252 14.636l-40.736-0.777v12.22l66.01 0.82s27.62 0 31.812 11.395l-97.823 2.463v12.214h114.908s10.548 8.12 10.548 13.026l-263.946 1.61v14.685l269.638-2.422s10.617 7.286 10.617 14.587L68.01 573.479v12.256h284.363s3.22 4.06 1.596 11.438L68.01 599.6v12.214h285.96s2.414 7.33 0 12.991l-285.96 1.68v13.04h283.502s2.457 8.113-4.08 14.636H68.01v13.02l273.732-0.813s-0.86 13.075-6.551 13.858h-96.92v13.866l83.929-0.818s-5.705 13.04-11.396 14.678l-72.534 0.819v13.844l48.856-0.812s-7.329 15.51-71.688 13.04L0.361 734.036V288.311H0.347z" fill="#E5BD56" p-id="3544"></path><path d="M586.13 509.932l1.651 221.676 61.903 0.763-0.777-107.573c-3.29-50.506 16.35-57.8 16.35-57.8 43.942-27.71 61.098 15.49 61.098 15.49l0.763 149.884H788.2l-1.624-166.2c-12.977-77.392-79.057-64.365-79.057-64.365-26.025-3.283-60.308 31.784-60.308 31.784l0.862-23.658H586.13v-0.001z m224.098-90.425l1.583 312.1h61.097l-0.777-49.736 30.133-40.743 49.729 91.243 71.66-2.449-77.35-141.772 64.303-88.794H939.78l-69.328 90.43-3.15-169.44-57.073-0.839z m-245.32 287.479l-2.442-146.637c-3.248-79.05-130.343-52.977-130.343-52.977-68.37 11.436-61.083 71.7-61.083 71.7l61.083-0.818c1.652-35.844 55.393-23.623 55.393-23.623 36.711 30.131-6.482 37.474-6.482 37.474-19.555 0-83.11 17.919-83.11 17.919-39.098 14.678-36.641 56.206-36.641 56.206 0 62.72 56.976 66.823 56.976 66.823 52.977 12.227 85.58-21.966 85.58-21.966l4.094 22.798 65.136-1.59-8.16-25.31z m-60.736-52.853s-6.329 20.464-25.192 29.382c0 0-41.082 21.972-54.13-8.168 0 0-4.358-19.139 14.38-26.474 0 0 48.814-17.544 65.442-23.214 0 0 1.748 12.783-0.5 28.474z" fill="#641E7C" p-id="3545"></path></svg>