<?xml version="1.0" standalone="no"?><!DOCTYPE svg PUBLIC "-//W3C//DTD SVG 1.1//EN" "http://www.w3.org/Graphics/SVG/1.1/DTD/svg11.dtd"><svg t="1493952430451" class="icon" style="" viewBox="0 0 1187 1024" version="1.1" xmlns="http://www.w3.org/2000/svg" p-id="8688" xmlns:xlink="http://www.w3.org/1999/xlink" width="231.8359375" height="200"><defs><style type="text/css"></style></defs><path d="M593.067 392.532c-21.333-44.8-42.667-89.601-61.867-134.4-36.266-85.334-66.133-170.667-93.867-258.133v0c-96 279.467-247.467 537.6-437.333 755.2v0c136.533-32 277.333-53.333 418.133-61.867 64-96 123.733-196.266 174.933-300.8z" fill="#BE1D1F" p-id="8689"></path><path d="M593.067 689.067c-57.6 0-117.334 2.133-174.933 6.4-78.933 115.2-166.4 226.134-262.4 328.532v0c140.8-27.733 287.997-40.533 437.333-40.533s296.533 12.8 437.333 40.533v0c-98.133-102.4-185.6-213.333-262.4-330.666-59.733-4.267-117.332-4.267-174.933-4.267z" fill="#730E0C" p-id="8690"></path><path d="M0 755.2l155.733 268.8c98.133-102.4 185.6-213.333 262.4-330.668-140.8 10.667-281.6 29.867-418.133 61.867z" fill="#E7191B" p-id="8691"></path><path d="M746.666 0v0c-25.6 87.467-57.6 172.8-93.867 258.133-19.2 44.8-40.533 89.601-61.867 134.4 51.201 104.533 108.801 204.8 174.933 300.8 140.8 8.533 281.6 29.867 418.133 61.867v0c-189.867-217.6-339.201-475.734-437.333-755.2z" fill="#E7191B" p-id="8692"></path><path d="M593.067 392.532c21.333-44.8 42.667-89.601 61.867-134.4 36.268-85.334 66.133-170.667 93.867-258.133h-311.467c25.6 87.467 57.6 172.8 93.867 258.133 19.2 44.8 40.533 89.601 61.867 134.4z" fill="#730E0C" p-id="8693"></path><path d="M1030.4 1024l155.733-268.8c-136.533-32-277.333-53.333-418.133-61.867 76.8 117.332 164.269 228.267 262.4 330.668z" fill="#BE1D1F" p-id="8694"></path></svg>