<?xml version="1.0" encoding="utf-8"?>
<!-- Generator: Adobe Illustrator 15.0.0, SVG Export Plug-In . SVG Version: 6.00 Build 0)  -->
<!DOCTYPE svg PUBLIC "-//W3C//DTD SVG 1.1//EN" "http://www.w3.org/Graphics/SVG/1.1/DTD/svg11.dtd">
<svg version="1.1" id="图层_1" xmlns="http://www.w3.org/2000/svg" xmlns:xlink="http://www.w3.org/1999/xlink" x="0px" y="0px"
	 width="231.836px" height="200px" viewBox="0 0 231.836 200" enable-background="new 0 0 231.836 200" xml:space="preserve">
<g>
	<path fill="#2F2267" d="M105.477,65.514l1.197-1.303l1.231-1.267l1.269-1.268l1.303-1.233l1.303-1.196l2.746-2.253l1.405-1.091
		l1.447-1.057l1.479-0.985l1.512-0.985l1.515-0.952l1.548-0.88l1.586-0.845l1.586-0.81l1.655-0.773l1.618-0.74l1.691-0.704
		l1.69-0.634l1.728-0.601l1.721-0.562l1.765-0.527l1.76-0.458l1.796-0.422l1.797-0.387l1.83-0.317l1.869-0.282l1.829-0.246
		l1.902-0.176l1.865-0.14l1.903-0.072h3.834l1.902,0.072l1.903,0.14l1.868,0.176l1.865,0.246l1.834,0.282l1.828,0.317l1.796,0.387
		l1.798,0.422l1.761,0.458l1.762,0.527l1.725,0.562l1.725,0.601l1.692,0.634l1.689,0.704l1.62,0.74l1.652,0.773l1.587,0.81
		l1.585,0.845l1.549,0.88l1.514,0.952l1.515,0.985l1.479,0.985l1.444,1.057l1.407,1.091l2.745,2.253l1.301,1.196l1.304,1.233
		l1.269,1.268l1.231,1.267l1.199,1.303h24.259l-1.479-2.358l-1.552-2.324l-1.617-2.289l-1.725-2.219l-1.762-2.183l-1.831-2.078
		l-1.901-2.077l-1.935-1.972l-2.039-1.936l-2.079-1.866l-2.147-1.795l-2.184-1.727l-2.254-1.654l-2.324-1.585l-2.356-1.514
		l-2.396-1.444l-2.462-1.374l-2.503-1.303l-2.567-1.196l-2.57-1.128l-2.642-1.057l-2.676-0.986l-2.746-0.879l-2.745-0.775
		l-2.782-0.739l-2.852-0.599l-2.853-0.527l-2.889-0.458l-2.921-0.317l-2.958-0.247l-2.959-0.175l-2.988-0.036l-3.031,0.036
		l-2.958,0.175l-2.956,0.247l-2.924,0.317l-2.884,0.458l-2.852,0.527l-2.854,0.599l-2.782,0.739l-2.746,0.775l-2.71,0.879
		l-2.715,0.986l-2.605,1.057l-2.605,1.128l-2.57,1.196l-2.5,1.303l-2.466,1.374l-2.394,1.444l-2.359,1.514l-2.325,1.585
		l-2.251,1.654l-2.187,1.727l-2.144,1.795l-2.083,1.866l-2.007,1.936l-1.971,1.972l-1.902,2.077l-1.827,2.078l-1.764,2.183
		l-1.722,2.219l-1.621,2.289l-1.548,2.324l-1.479,2.358h24.26H105.477L105.477,65.514z M171.957,153.038h-0.635l-0.634-0.031
		l-0.598-0.034l-1.196-0.212l-0.56-0.174l-0.528-0.213l-0.495-0.285l-0.491-0.348l-0.212-0.18l-0.175-0.242l-0.212-0.213
		l-0.18-0.246l-0.136-0.281l-0.178-0.317l-0.14-0.316l-0.104-0.317l-0.106-0.391l-0.074-0.387l-0.069-0.422l-0.034-0.423
		l-0.033-0.458l-0.035-0.493h-0.034V96.534h17.081v-18.31h-17.081V50.271l-20.987,9.366v18.588h-17.077v18.31h17.077v57.106h0.034
		l0.035,0.597l0.072,0.635l0.069,0.669l0.106,0.635l0.104,0.668l0.354,1.338l0.211,0.67l0.213,0.634l0.563,1.338l0.704,1.267
		l0.845,1.193l0.491,0.603l0.527,0.559l0.562,0.563l0.6,0.527l0.67,0.491l0.704,0.459l0.737,0.456l0.813,0.389l0.848,0.387
		l0.875,0.317l0.951,0.317l1.025,0.245l1.058,0.211l1.126,0.177l1.195,0.14l1.236,0.072l1.299,0.032l7.573,0.106h2.184l1.022-0.033
		l0.983-0.073l0.915-0.072l0.919-0.139l0.845-0.139l0.845-0.243l0.771-0.247l0.774-0.317l0.704-0.387l0.704-0.424l0.634-0.525
		l0.634-0.563l0.601-0.669l0.56-0.739l0.527-0.845l0.527-0.914l0.459-1.059l0.494-1.127l0.42-1.235l0.424-1.338l0.389-1.445
		l0.387-1.584l0.354-1.724l0.317-1.827l-6.692-3.137l-0.245,0.213l-0.6,0.494l-0.951,0.741l-1.162,0.81l-1.338,0.845l-0.707,0.387
		l-0.703,0.317l-0.741,0.279l-0.663,0.248l-0.709,0.139l-0.317,0.037H171.957L171.957,153.038z M198.895,169.198h20.988V78.717
		h-20.988V169.198L198.895,169.198z M94.385,169.198h20.987V78.717H94.385V169.198L94.385,169.198z M50.3,95.756l1.653,0.071
		l0.846,0.072l0.809,0.07l0.81,0.105l0.812,0.142l0.809,0.175l1.55,0.353l1.551,0.493l0.74,0.247l1.479,0.635l0.704,0.317
		l1.408,0.704l0.667,0.421l0.706,0.388l0.634,0.422l0.666,0.459l0.602,0.457l0.634,0.491l0.598,0.493l0.598,0.527l1.13,1.057
		l0.528,0.563l0.528,0.599l0.528,0.562l0.492,0.635l0.458,0.599L87.59,93.255l-0.845-0.985l-1.76-1.972l-1.831-1.83l-0.985-0.915
		l-1.972-1.689l-1.057-0.81l-1.057-0.773l-1.056-0.74l-1.127-0.739l-1.091-0.704l-2.324-1.267l-1.163-0.599l-1.193-0.597
		l-1.236-0.528l-1.233-0.492l-1.231-0.458l-1.269-0.458l-1.303-0.387l-2.606-0.704l-1.342-0.281l-1.338-0.247l-1.338-0.211
		l-1.374-0.176l-1.374-0.14l-1.374-0.105l-1.409-0.071l-1.406-0.035l-2.464,0.071l-2.43,0.175l-2.394,0.317l-2.323,0.422
		l-2.324,0.527l-2.255,0.635l-2.219,0.774l-2.183,0.846l-2.113,0.951l-2.042,1.057l-2.007,1.162l-1.934,1.231l-1.868,1.337
		l-1.829,1.409l-1.726,1.513l-1.655,1.549l-1.586,1.69l-1.479,1.725l-1.447,1.796l-1.299,1.866L9.451,98.33l-1.131,2.007
		l-1.057,2.042l-0.952,2.113l-0.875,2.183l-0.74,2.218l-0.634,2.253l-0.528,2.323l-0.422,2.357l-0.317,2.393l-0.176,2.396
		l-0.073,2.464l0.073,2.462l0.176,2.43l0.317,2.398l0.422,2.321l0.528,2.323l0.634,2.249l0.74,2.218l0.875,2.183l0.952,2.114
		l1.057,2.041l1.131,2.007l1.269,1.932l1.299,1.865l1.447,1.831l1.479,1.726l1.586,1.654l1.655,1.584l1.726,1.479l1.829,1.444
		l1.868,1.302l1.934,1.268l2.007,1.127l2.042,1.055l2.113,0.953l2.183,0.879l2.219,0.74l2.255,0.635l2.324,0.526l2.323,0.423
		l2.394,0.316l2.43,0.177l2.464,0.071h1.339l1.338-0.071l1.34-0.106l1.301-0.105l1.303-0.175l1.3-0.211l1.268-0.212l2.536-0.563
		l2.465-0.704l1.198-0.387l1.233-0.424l1.162-0.457l1.197-0.491l1.128-0.528l1.162-0.562l1.09-0.563l1.128-0.599l1.089-0.634
		l1.057-0.669l1.056-0.705l1.023-0.704l1.021-0.738l0.986-0.775l0.951-0.773l0.952-0.811l0.914-0.845l0.916-0.876l0.878-0.879
		l1.689-1.827l-15.281-13.559l-0.492,0.561l-0.496,0.527l-1.021,1.025l-0.527,0.454l-0.563,0.495l-0.528,0.456l-0.559,0.456
		l-1.197,0.847l-1.196,0.774l-1.901,1.057l-0.667,0.317l-2.007,0.845l-1.408,0.491l-0.704,0.212l-0.704,0.174l-0.74,0.181
		l-2.217,0.422l-0.739,0.071l-0.775,0.075l-0.739,0.07l-0.774,0.034h-0.771l-1.409-0.034l-1.374-0.105l-1.374-0.176l-1.338-0.246
		l-1.339-0.281l-1.302-0.39l-1.269-0.424l-1.234-0.492l-1.196-0.526l-1.197-0.635l-1.127-0.634l-1.129-0.708l-1.056-0.771
		l-1.056-0.811l-0.986-0.878l-0.952-0.877l-0.88-0.951l-0.875-0.983l-0.813-1.058l-0.74-1.057l-0.738-1.127l-0.634-1.131
		l-0.599-1.162l-0.562-1.231l-0.493-1.235l-0.423-1.266l-0.387-1.301l-0.281-1.303l-0.247-1.375l-0.176-1.338l-0.105-1.403
		l-0.033-1.407l0.033-1.409l0.105-1.374l0.176-1.375l0.247-1.338l0.281-1.338l0.387-1.302l0.423-1.268l0.493-1.23l0.562-1.197
		l0.599-1.197l0.634-1.127l0.738-1.128l0.74-1.055l0.813-1.025l0.875-0.981l0.88-0.953l0.952-0.914l0.986-0.845l1.056-0.845
		l1.056-0.739l1.129-0.705l1.127-0.667l1.197-0.598l1.196-0.564l1.234-0.492l1.269-0.422l1.302-0.353l1.339-0.317l1.338-0.246
		l1.374-0.175l1.374-0.105l1.41-0.033v-0.012H50.3z"/>
	<path fill="#D13433" d="M105.477,65.514l1.197-1.303l1.231-1.267l1.269-1.268l1.303-1.233l1.303-1.196l2.746-2.253l1.405-1.091
		l1.447-1.057l1.479-0.985l1.512-0.985l1.515-0.952l1.548-0.88l1.586-0.845l1.586-0.81l1.655-0.773l1.618-0.74l1.691-0.704
		l1.69-0.634l1.728-0.601l1.721-0.562l1.765-0.527l1.76-0.458l1.796-0.422l1.797-0.387l1.83-0.317l1.869-0.282l1.829-0.246
		l1.902-0.176l1.865-0.14l1.903-0.072h3.834l1.902,0.072l1.903,0.14l1.868,0.176l1.865,0.246l1.834,0.282l1.828,0.317l1.796,0.387
		l1.798,0.422l1.761,0.458l1.762,0.527l1.725,0.562l1.725,0.601l1.692,0.634l1.689,0.704l1.62,0.74l1.652,0.773l1.587,0.81
		l1.585,0.845l1.549,0.88l1.514,0.952l1.515,0.985l1.479,0.985l1.444,1.057l1.407,1.091l2.745,2.253l1.301,1.196l1.304,1.233
		l1.269,1.268l1.231,1.267l1.199,1.303h24.259l-1.479-2.358l-1.552-2.324l-1.617-2.289l-1.725-2.219l-1.762-2.183l-1.831-2.078
		l-1.901-2.077l-1.935-1.972l-2.039-1.936l-2.079-1.866l-2.147-1.795l-2.184-1.727l-2.254-1.654l-2.324-1.585l-2.356-1.514
		l-2.396-1.444l-2.462-1.374l-2.503-1.303l-2.567-1.196l-2.57-1.128l-2.642-1.057l-2.676-0.986l-2.746-0.879l-2.745-0.775
		l-2.782-0.739l-2.852-0.599l-2.853-0.527l-2.889-0.458l-2.921-0.317l-2.958-0.247l-2.959-0.175l-2.988-0.036l-3.031,0.036
		l-2.958,0.175l-2.956,0.247l-2.924,0.317l-2.884,0.458l-2.852,0.527l-2.854,0.599l-2.782,0.739l-2.746,0.775l-2.71,0.879
		l-2.715,0.986l-2.605,1.057l-2.605,1.128l-2.57,1.196l-2.5,1.303l-2.466,1.374l-2.394,1.444l-2.359,1.514l-2.325,1.585
		l-2.251,1.654l-2.187,1.727l-2.144,1.795l-2.083,1.866l-2.007,1.936l-1.971,1.972l-1.902,2.077l-1.827,2.078l-1.764,2.183
		l-1.722,2.219l-1.621,2.289l-1.548,2.324l-1.479,2.358h24.26H105.477L105.477,65.514z"/>
</g>
</svg>
