<?xml version="1.0" encoding="utf-8"?>
<!-- Generator: Adobe Illustrator 15.0.0, SVG Export Plug-In . SVG Version: 6.00 Build 0)  -->
<!DOCTYPE svg PUBLIC "-//W3C//DTD SVG 1.1//EN" "http://www.w3.org/Graphics/SVG/1.1/DTD/svg11.dtd">
<svg version="1.1" id="图形" xmlns="http://www.w3.org/2000/svg" xmlns:xlink="http://www.w3.org/1999/xlink" x="0px" y="0px"
	 width="1000.637px" height="1000.678px" viewBox="0 0 1000.637 1000.678" enable-background="new 0 0 1000.637 1000.678"
	 xml:space="preserve">
<circle fill="#FFFFFF" stroke="#000000" stroke-width="3" stroke-miterlimit="10" cx="495.505" cy="504.943" r="436.909"/>
<g>
	<g>
		<g>
			<path fill="#261C19" d="M639.01,692.182H345.305c-37.844,0-72.825,41.654-91.76,85.907c3.317,2.108,6.605,4.242,9.825,6.482
				c18.887,7.676,36.507,18.493,52.289,31.315c2.391,1.959,1.39,5.646-0.818,7.257c1.275,0.913,2.537,1.829,3.811,2.742
				c0.534,0.349,1.102,0.705,1.654,1.077c0.772-0.271,1.664-0.271,2.631,0.118c10.409,4.184,20.758,8.504,31.049,13.009
				c14.86,4.073,29.424,9.067,43.233,16.131c6.214,1.383,12.318,3.049,18.371,4.908c0.167,0.033,0.314,0.04,0.447,0.099
				c0.36,0.117,0.708,0.216,1.068,0.331c3.919,1.223,7.812,2.531,11.688,3.835c44.058,0.642,88.088-0.099,132.139-4.703
				c11.119-1.162,22.682-2.447,34.336-4.188c11.234-2.723,22.1-6.698,33.4-8.707c8.914-3.406,17.676-7.316,26.613-10.58
				c0.293-0.652,0.781-1.296,1.561-1.83c13.834-9.293,29.422-21.167,46.566-23.322c10.154-9.621,20.076-19.537,30.803-28.536
				c0.674-0.555,1.434-1.219,2.242-1.95C717.352,735.348,679.164,692.182,639.01,692.182z"/>
			<g>
				<g>
					<path fill="#231815" d="M342.541,835.184v-16.303l-1.694,15.598C341.409,834.717,341.976,834.956,342.541,835.184z"/>
				</g>
				<g>
					<path fill="#231815" d="M647.283,840.308l-2.314-21.428v22.368C645.75,840.943,646.51,840.611,647.283,840.308z"/>
				</g>
			</g>
		</g>
		<path fill="#E2CAA7" d="M565.154,652.568v-16.164c0.021-0.608-1.732-16.435,12.113-23.397l-44.119-4.081v-5.987l-35.777,1.187
			v1.478h-7.247v-1.478l-35.763-1.187v5.987l-42.543,3.952c13.842,6.941,10.523,22.918,10.523,23.528v16.164
			c0,0.61-0.384,31.092-26.375,39.615h58.395h31.598c0.276,0.205,0.648,0.265,1.038,0.063c0.047-0.02,0.081-0.043,0.134-0.063h0.92
			c-0.517,0.597-0.26,1.799,0.695,1.699c3.163-0.372,6.832,3.33,7.711,2.848c2.352-1.334,4.548-2.883,6.687-4.547h30.004h58.387
			C565.547,683.66,565.176,653.179,565.154,652.568z"/>
		<path fill="#EEEEEF" d="M518.627,864.014l97.662-171.832l-64.117,28.493l-105.675,11.049l-73.8-39.542l98.502,173.31
			C487.021,865.297,502.839,864.854,518.627,864.014z"/>
		<g>
			<path fill="#280800" d="M354.779,556.354c0,0,140.482,179.896,277.975-1.002l-5.68-140.782l-213.073,46.618L354.779,556.354z"/>
			<path fill="#E2CAA7" d="M665.244,402.202c0.951-9.601,1.469-19.44,1.469-29.379c0-123.769-77.438-224.094-172.945-224.094
				c-95.525,0-172.971,100.326-172.971,224.094c0,2.036,0.021,4.095,0.06,6.104l-0.018,0.036
				c-0.176,66.193,23.857,133.154,35.522,161.707c1.826,4.877,3.884,9.646,6.159,14.3l0,0l0,0
				c24.531,49.837,74.077,83.938,131.247,83.938c57.491,0,107.315-34.515,131.647-84.866
				C660.758,482.398,665.244,402.202,665.244,402.202L665.244,402.202z"/>
			<path fill="#4C281D" d="M400.345,283.363c0,0-11.627,31.382-27.557,59.04c-15.958,27.669,3.435,159.513-33.493,72.167
				c-18.455-43.606,42.624,177.34,16.97,145.738c-39.792-49.075-49.674-178.454-49.674-178.454s-6.37-49.977,0-94.634
				c6.369-44.675,13.817-73.384,46.794-76.573c0,0,33.934-44.807,114.223-67.74c86.423-24.685,186.738,26.241,208.029,97.518
				c21.279,71.243-0.547,274.823-49.955,320.903c-9.068,8.445,27.75-160.96,13.908-131.551
				c-5.877,12.485-21.041,44.299-13.637-15.207c4.066-32.744,10.307-50.289-42.033-67.369
				C554.521,337.616,502.449,356.727,400.345,283.363z"/>
			<g>
				<path fill="#E2CAA7" d="M376.944,440.574c0,0-26.641-56.573-49.708-51.46c-23.104,5.122-10.264,43.58,0,66.667
					c10.244,23.059,17.925,69.229,37.161,57.693C383.626,501.927,376.944,440.574,376.944,440.574z"/>
				<path fill="#E2CAA7" d="M608.637,444.752c0,0,28.58-60.751,51.652-55.638c23.084,5.122,10.264,43.58,0,66.667
					c-10.25,23.059-17.949,69.229-37.18,57.693C603.877,501.927,608.637,444.752,608.637,444.752z"/>
			</g>
		</g>
		<g>
			<g>
				<path fill="#50403D" d="M419.248,584.608c-0.761-0.067-77.076-6.474-101.731-74.434l6.554-2.362
					c23.126,63.758,94.982,69.797,95.717,69.84L419.248,584.608z"/>
			</g>
			<path fill="#BFBBB5" d="M629.346,197.184c-31.963-34.23-77.598-51.59-135.577-51.59c-58.02,0-103.624,17.359-135.61,51.59
				c-54.921,58.813-49.692,145.427-49.444,149.093l13.901-0.958c-0.044-0.824-5.092-84.203,45.732-138.635
				c29.233-31.277,71.44-47.17,125.422-47.17c53.923,0,96.085,15.857,125.314,47.105c50.709,54.201,45.893,137.591,45.82,138.7
				v0.011l13.879,0.947C679.029,342.61,684.27,255.997,629.346,197.184z"/>
			<path fill="#BFBBB5" d="M327.542,382.022c0,8.148-6.626,14.745-14.776,14.745l0,0c-8.168,0-14.756-6.596-14.756-14.745V351.96
				c0-8.151,6.588-14.759,14.756-14.759l0,0c8.151,0,14.776,6.607,14.776,14.759V382.022z"/>
			<path fill="#50403D" d="M343.65,511.556c0,0,7.129-75.401-18.937-125.076c0,0,3.785-12.949,16.285-11.839
				c7.933,0.675,12.111,0.968,17.472,59.696c6.95,75.819,10.061,85.72-4.157,86.397C347.95,521.005,342.051,516.228,343.65,511.556z
				"/>
			<g>
				<g>
					<path id="SVGID_1_" fill="#231815" d="M298.405,474.551c0,0,0.055,0.09,0.1,0.222c-0.032-0.089-0.045-0.133-0.067-0.2
						C298.428,474.551,298.405,474.551,298.405,474.551"/>
				</g>
				<g>
					<g>
						<defs>
							<path id="SVGID_2_" d="M298.405,474.551c0,0,0.055,0.09,0.1,0.222c-0.032-0.089-0.045-0.133-0.067-0.2
								C298.428,474.551,298.405,474.551,298.405,474.551"/>
						</defs>
						<clipPath id="SVGID_4_">
							<use xlink:href="#SVGID_2_"  overflow="visible"/>
						</clipPath>
						<rect x="298.405" y="474.551" clip-path="url(#SVGID_4_)" fill="#231815" width="0.1" height="0.222"/>
					</g>
				</g>
			</g>
			<polyline fill="#231815" points="329.915,490.445 329.915,490.445 330.005,490.932 329.915,490.445 			"/>
			<path fill="#231815" d="M296.266,426.186c-0.612,3.004-0.897,4.814-0.897,4.814c0.031-0.072,0.067-0.11,0.097-0.221
				C295.697,429.224,295.97,427.678,296.266,426.186 M298.721,415.727c-0.022,0.02-0.022,0.02-0.022,0.02
				c-0.017,0.08-0.028,0.188-0.053,0.254C298.671,415.92,298.699,415.827,298.721,415.727"/>
			<g>
				<path fill="#231815" d="M303.807,485.763c-0.489-1.406-0.914-2.873-1.351-4.317C302.924,482.922,303.38,484.446,303.807,485.763
					z"/>
				<path fill="#231815" d="M304.522,487.849c0,0,0.134,0.296,0.341,0.746c-0.351-0.949-0.73-1.864-1.057-2.832
					C304.078,486.613,304.326,487.34,304.522,487.849z"/>
				<polygon fill="#231815" points="318.368,395.898 318.368,395.898 318.585,398.355 				"/>
				<path fill="#231815" d="M329.621,519.37l-0.217-2.469c0.831-0.729,1.232-1.847,0.457-3.102
					c-0.214-0.385-0.361-0.777-0.555-1.153c0.158-8.633-1.406-17.153-2.628-25.716l-6.285-68.907l-0.086-0.022
					c0-0.431-0.024-0.913-0.045-1.361l0.131,1.384v0.021l-0.131-1.49c-0.096-1.984-0.538-5.962-0.538-5.962
					c-0.669-4.826-1.715-18.677-1.715-18.677c0.008-0.205-0.019-1.567-0.172-1.971l-0.827-9.108
					c-6.402,5.23-11.628,13.876-15.179,24.726c-0.799,2.017-6.364,23.065-3.642,56.313c0.022,0.675,0,1.338,0.034,2.002
					c0.449,6.225,1.987,11.567,3.951,16.617c0.097,0.328,8.818,33.286,28.385,42.729
					C330.075,522.025,329.744,520.733,329.621,519.37z"/>
			</g>
			<g>
				<g>
					<path id="SVGID_3_" fill="#231815" d="M689.229,474.551c0,0-0.021,0.09-0.086,0.222c0.043-0.089,0.063-0.133,0.086-0.2V474.551
						"/>
				</g>
				<g>
					<g>
						<defs>
							<path id="SVGID_5_" d="M689.229,474.551c0,0-0.021,0.09-0.086,0.222c0.043-0.089,0.063-0.133,0.086-0.2V474.551"/>
						</defs>
						<clipPath id="SVGID_6_">
							<use xlink:href="#SVGID_5_"  overflow="visible"/>
						</clipPath>
						<rect x="689.145" y="474.551" clip-path="url(#SVGID_6_)" fill="#231815" width="0.086" height="0.222"/>
					</g>
				</g>
			</g>
			<polyline fill="#231815" points="657.73,490.445 657.73,490.445 657.645,490.932 657.73,490.445 			"/>
			<path fill="#50403D" d="M261.428,453.744c3.144,41.499,39.33,72.605,80.83,69.44L330.872,372.9
				C289.363,376.049,258.279,412.257,261.428,453.744z"/>
			<path fill="#7F7C78" d="M331.412,365.673c-0.776-0.066-1.593-0.066-2.387,0c-7.349,0.642-12.759,7.13-12.086,14.455l0.074,0.708
				l10.173,111.873l0,0l0.054,0.442l2.384,26.219c0.124,1.363,0.454,2.655,0.937,3.853c1.871,4.554,6.192,7.785,11.189,8.197
				c0.771,0.067,1.555,0.067,2.363,0c7.332-0.677,12.761-7.132,12.08-14.455l-12.694-139.246
				C342.909,371.212,337.718,366.229,331.412,365.673"/>
			<path fill="#BFBBB5" d="M659.971,382.022c0,8.148,6.627,14.745,14.76,14.745l0,0c8.168,0,14.77-6.596,14.77-14.745V351.96
				c0-8.151-6.602-14.759-14.77-14.759l0,0c-8.135,0-14.76,6.607-14.76,14.759V382.022z"/>
			<path fill="#50403D" d="M643.879,511.556c0,0-7.139-75.401,18.934-125.076c0,0-3.82-12.949-16.303-11.839
				c-7.922,0.675-12.121,0.968-17.49,59.696c-6.934,75.819-10.035,85.72,4.189,86.397
				C639.557,521.005,645.447,516.228,643.879,511.556z"/>
			<path fill="#231815" d="M691.244,426.186c0.291,1.492,0.555,3.038,0.781,4.593c0.059,0.111,0.066,0.149,0.113,0.221
				C692.139,431,691.863,429.19,691.244,426.186 M688.781,415.727c0.033,0.099,0.043,0.194,0.105,0.273
				c-0.063-0.067-0.072-0.174-0.092-0.254L688.781,415.727"/>
			<g>
				<path fill="#231815" d="M683.701,485.763c0.479-1.406,0.902-2.873,1.35-4.317C684.604,482.922,684.135,484.446,683.701,485.763z
					"/>
				<path fill="#231815" d="M682.971,487.849c0,0-0.145,0.296-0.326,0.746c0.357-0.949,0.73-1.864,1.057-2.832
					C683.428,486.613,683.18,487.34,682.971,487.849z"/>
				<polygon fill="#231815" points="669.123,395.898 669.123,395.898 668.914,398.355 				"/>
				<path fill="#231815" d="M657.896,519.37l0.215-2.469c-0.85-0.729-1.244-1.847-0.467-3.102c0.217-0.385,0.367-0.777,0.566-1.153
					c-0.168-8.633,1.379-17.153,2.643-25.716l6.27-68.907l0.066-0.022c0-0.431,0.02-0.913,0.053-1.361l-0.119,1.384l-0.02,0.021
					l0.137-1.49c0.09-1.984,0.563-5.962,0.563-5.962c0.662-4.826,1.695-18.677,1.695-18.677c-0.016-0.205,0.008-1.567,0.184-1.971
					l0.826-9.108c6.4,5.23,11.605,13.876,15.16,24.726c0.805,2.017,6.377,23.065,3.648,56.313c-0.031,0.675,0,1.338-0.043,2.002
					c-0.438,6.225-1.949,11.567-3.928,16.617c-0.098,0.328-8.828,33.286-28.408,42.729
					C657.436,522.025,657.77,520.733,657.896,519.37z"/>
			</g>
			<path fill="#50403D" d="M726.07,453.744c-3.145,41.499-39.332,72.605-80.82,69.44L656.654,372.9
				C698.156,376.049,729.217,412.257,726.07,453.744z"/>
			<path fill="#7F7C78" d="M656.109,365.673c0.775-0.066,1.566-0.066,2.385,0c7.348,0.642,12.756,7.13,12.068,14.455l-0.055,0.708
				l-10.199,111.873l0,0l-0.045,0.442l-2.367,26.219c-0.129,1.363-0.461,2.655-0.961,3.853c-1.861,4.554-6.176,7.785-11.154,8.197
				c-0.781,0.067-1.578,0.067-2.375,0c-7.354-0.677-12.766-7.132-12.09-14.455l12.68-139.246
				C644.588,371.212,649.777,366.229,656.109,365.673"/>
			<path fill="#271B19" d="M467.311,577.132c0,14.244-14.734,25.805-32.923,25.805c-18.178,0-32.936-11.561-32.936-25.805
				c0-14.237,14.757-25.815,32.936-25.815C452.577,551.317,467.311,562.895,467.311,577.132z"/>
		</g>
		<polygon fill="#E2CAA7" points="592.396,692.182 493.767,720.675 490.744,692.182 		"/>
		<polygon fill="#E2CAA7" points="395.674,692.182 494.321,720.675 497.303,692.182 		"/>
		<g>
			<path fill="#DBDCDC" d="M615.363,692.182l-82.326,91.314c0,0-24.434-30.802-26.646-31.867
				c-2.217-1.077-17.416-21.336-17.416-21.336l18.896-7.736l84.525-23.682L615.363,692.182z"/>
			<path fill="#FFFFFF" d="M615.363,692.182l-82.326,84.642c0,0-24.434-30.8-26.646-31.879c-2.217-1.076-17.416-21.32-17.416-21.32
				l18.896-7.759l67.223-34.97L615.363,692.182z"/>
			<path fill="#DBDCDC" d="M372.697,692.182l82.318,91.314c0,0,24.462-30.802,26.663-31.867
				c2.194-1.077,17.401-21.336,17.401-21.336l-18.892-7.736l-84.515-23.682L372.697,692.182z"/>
			<path fill="#FFFFFF" d="M372.697,692.182l82.318,84.642c0,0,24.462-30.8,26.663-31.879c2.194-1.076,17.401-21.32,17.401-21.32
				l-18.892-7.759l-67.795-34.97L372.697,692.182z"/>
		</g>
		<path fill="#00728B" d="M533.398,863.067c-2.145-42.849-10.654-124.629-44.422-100.672c0,0-27.681,11.218-25.866,103.163
			C486.529,865.43,509.977,864.712,533.398,863.067z"/>
		<path fill="#0097BF" d="M523.537,716.924c0,0-37.344-8.383-58.68,3.046c-21.339,11.413,3.049,39.613,23.62,56.377
			C509.047,793.104,549.461,719.848,523.537,716.924z"/>
		<path fill="#231815" d="M372.697,692.182h-16.468l4.694,149.888c2.125,0.646,4.256,1.296,6.394,1.983l70.836,13.136v8.315
			c11.006,0.106,22.034,0.106,33.046-0.015L372.697,692.182z"/>
		<path fill="#231815" d="M550.844,861.673v-4.482l77.215-14.302l4.695-150.705h-16.465l-97.662,171.83
			C529.379,863.404,540.111,862.652,550.844,861.673z"/>
	</g>
	<g>
		<g>
			<path fill="#BFBBB5" d="M752.5,758.137c-66.232,59.655-153.814,96.015-249.74,96.015c-102.195,0-194.909-41.26-262.43-107.986
				c-3.799,5.125-7.758,10.188-11.894,15.054c70.852,69.273,167.667,112.069,274.325,112.069c99.548,0,190.509-37.31,259.812-98.575
				C759.258,769.151,755.879,763.646,752.5,758.137z"/>
		</g>
	</g>
</g>
</svg>
