<?xml version="1.0" standalone="no"?><!DOCTYPE svg PUBLIC "-//W3C//DTD SVG 1.1//EN" "http://www.w3.org/Graphics/SVG/1.1/DTD/svg11.dtd"><svg t="1493952419688" class="icon" style="" viewBox="0 0 1024 1024" version="1.1" xmlns="http://www.w3.org/2000/svg" p-id="7942" xmlns:xlink="http://www.w3.org/1999/xlink" width="200" height="200"><defs><style type="text/css"></style></defs><path d="M509.5168 303.0656l101.5936 54.7328-96.9088 59.4048-101.5808-51.5968 96.896-62.5408z m4.672-65.6384l226.6368 126.6304-101.6064 62.5024s251.648 28.1344 343.8208 145.3824c0 0 138.8288 198.848-184.704 300.48 0 0-626.4192 152.8704-798.3616-195.7248l146.944-4.6976s114.0736 215.104 354.7904 188.5312c0 0 423.5136-15.0016 351.6416-247.9488 0 0-85.952-156.288-375.104-153.1648l-178.176-100.0576 214.1184-121.9328z" fill="#1D2087" p-id="7943"></path><path d="M406.3616 659.4944l101.5936-56.2688 103.1552 56.2688-106.2784 56.2688-98.4704-56.2688z m120.9472-538.9056c158.4128 10.9568 419.84 49.2672 496.6912 235.392H867.0464C811.904 113.6512 250.8416 78.8864 166.9376 319.7568c-43.0976 110.4384 117.5168 237.0688 233.152 235.5072 24.0512-0.3328 62.528-13.5168 99.0336-5.12l204.16 108.5056-204.3904 119.7952c-74.4192-42.2272-148.8768-84.5056-223.3216-126.72l102.6048-60.352C210.9312 573.824-27.8528 482.0992 3.968 325.8112 43.968 129.4464 368.8832 109.6576 527.3088 120.5888z" fill="#5AA472" p-id="7944"></path></svg>