<?xml version="1.0" standalone="no"?><!DOCTYPE svg PUBLIC "-//W3C//DTD SVG 1.1//EN" "http://www.w3.org/Graphics/SVG/1.1/DTD/svg11.dtd"><svg t="1493952498947" class="icon" style="" viewBox="0 0 1024 1024" version="1.1" xmlns="http://www.w3.org/2000/svg" p-id="12859" xmlns:xlink="http://www.w3.org/1999/xlink" width="200" height="200"><defs><style type="text/css"></style></defs><path d="M512 0c-15.36 0-30.72 0.512-46.08 2.048v247.296c0 11.264 9.216 20.48 20.48 20.48h51.2c11.264 0 20.48-9.216 20.48-20.48v-247.296c-15.36-1.536-30.72-2.048-46.08-2.048zM543.232 335.36h71.68c11.264 0 20.48-9.216 20.48-20.48V51.2h51.2v419.84c0 13.312-10.752 23.552-23.552 23.552h-116.224c-22.528 0-23.552 11.776-23.552 11.776v-151.04c-0.512-10.752 8.704-19.968 19.968-19.968z" fill="#008566" p-id="12860"></path><path d="M481.792 335.36h-71.68c-11.264 0-20.48-9.216-20.48-20.48V51.2h-51.2v419.84c0 13.312 10.752 23.552 23.552 23.552h116.224c22.528 0 23.552 11.776 23.552 11.776v-151.04c0.512-10.752-8.704-19.968-19.968-19.968zM358.912 675.328h81.92c11.264 0 20.48 9.216 20.48 20.48V1013.76h40.96V539.648c0-13.312-10.752-23.552-23.552-23.552h-116.224c-22.528 0-23.552-11.776-23.552-11.776V655.36c-0.512 10.752 8.704 19.968 19.968 19.968zM666.112 675.328h-81.92c-11.264 0-20.48 9.216-20.48 20.48V1013.76h-40.96V539.648c0-13.312 10.752-23.552 23.552-23.552h116.224c22.528 0 23.552-11.776 23.552-11.776V655.36c0.512 10.752-8.704 19.968-19.968 19.968z" fill="#008566" p-id="12861"></path><path d="M635.392 14.848v106.496C801.28 173.568 921.6 328.704 921.6 512c0 226.304-183.296 409.6-409.6 409.6s-409.6-183.296-409.6-409.6c0-183.808 120.832-338.944 287.232-391.168v-106.496C165.888 69.632 0 271.36 0 512c0 282.624 229.376 512 512 512S1024 794.624 1024 512c0-240.128-165.376-441.856-388.608-497.152z" fill="#008566" p-id="12862"></path><path d="M537.088 952.32h-51.2c-11.264 0-20.48-9.216-20.48-20.48V675.84h92.16v256c0 11.264-9.216 20.48-20.48 20.48z" fill="#008566" p-id="12863"></path></svg>