<?xml version="1.0" standalone="no"?><!DOCTYPE svg PUBLIC "-//W3C//DTD SVG 1.1//EN" "http://www.w3.org/Graphics/SVG/1.1/DTD/svg11.dtd"><svg t="1493952760110" class="icon" style="" viewBox="0 0 1024 1024" version="1.1" xmlns="http://www.w3.org/2000/svg" p-id="15185" xmlns:xlink="http://www.w3.org/1999/xlink" width="200" height="200"><defs><style type="text/css"></style></defs><path d="M925.798 264.294H98.202c-31.642 0-57.242 25.6-57.242 57.242v381.03c0 31.642 25.6 57.14 57.242 57.14h827.596c31.642 0 57.242-25.498 57.242-57.14v-381.03c0-31.642-25.6-57.242-57.242-57.242" fill="#EC6C00" p-id="15186"></path><path d="M963.994 581.12c0 21.094-17.101 38.195-38.196 38.195H98.202c-21.095 0-38.196-17.203-38.196-38.195V321.536c0-21.094 17.101-38.195 38.196-38.195h827.596c21.095 0 38.196 17.1 38.196 38.195V581.12" fill="#FFFFFF" p-id="15187"></path><path d="M473.088 464.691h-18.022v7.066h-17.92v-15.77h30.822V441.14h-30.822v-10.854h35.942v-16.18h-95.232v16.18h35.84v10.854h-30.72v14.848h30.72v15.77h-35.942v16.179h95.232v-23.245m-173.364-64.614H246.17v-15.975c0-1.638-1.332-2.97-3.072-2.97h-21.71c-1.638 0-3.071 1.332-3.071 2.97v15.975h-53.453c-9.83 0-17.818 7.987-17.818 17.817v58.266c0 9.83 7.988 17.818 17.818 17.818h53.453v25.088c0 1.638 1.331 3.072 3.072 3.072h21.709c1.638 0 3.072-1.434 3.072-3.072v-25.088h53.452c9.83 0 17.818-7.988 17.818-17.818v-58.266c0-9.83-7.987-17.817-17.818-17.817z m-81.203 74.137h-46.08V419.84h46.08v54.374z m73.83 0h-46.08V419.84h46.08v54.374z m421.07-54.374h14.233c1.638 0 3.072-1.331 3.072-3.072v-8.806h124.928v8.806c0 1.638 1.331 3.072 2.97 3.072h14.233c1.639 0 3.072-1.331 3.072-3.072V406.63a15.602 15.602 0 0 0-15.667-15.667h-53.862v-7.373c0-1.638-1.332-3.072-3.072-3.072h-20.378c-1.638 0-3.072 1.332-3.072 3.072v7.373h-53.862c-8.602 0-15.668 6.963-15.668 15.667v10.138c0 1.74 1.332 3.072 3.072 3.072z m-55.194-2.048c-2.458 0-4.403 1.229-5.12 2.867l-20.48 39.834c-0.82 1.536 0.205 2.765 1.74 2.765h20.48c2.458 0 4.404-1.23 5.223-2.765l20.378-39.834c0.819-1.536-0.205-2.867-1.741-2.867h-20.48z m-166.912-32.154H359.629c-9.83 0-17.818 7.988-17.818 17.818v96.87c0 9.83 7.987 17.818 17.818 17.818h131.584c9.83 0 17.817-7.987 17.817-17.818v-96.87c0-9.83-7.987-17.818-17.817-17.818z m-5.94 113.562H365.569v-96.051h119.706V499.2z m388.506-65.843h-26.112v-11.264c0-1.741-1.433-3.175-3.072-3.175h-17.817c-1.741 0-3.072 1.434-3.072 3.175v11.264h-61.133v-11.264a3.19 3.19 0 0 0-3.175-3.175h-17.817c-1.741 0-3.072 1.434-3.072 3.175v11.264h-26.215a2.972 2.972 0 0 0-2.97 2.97v13.209a2.972 2.972 0 0 0 2.97 2.97h26.215v8.192c0 9.523 4.403 18.636 16.077 24.268a631.104 631.104 0 0 0 15.872 7.68c-10.445 4.301-19.661 6.247-29.39 6.247h-24.78c-1.74 0-3.072 1.331-3.072 3.072v13.107c0 1.74 1.434 3.174 3.072 3.174h24.371c9.728 0 21.607-2.048 31.744-5.836 4.096-1.536 11.879-4.916 20.787-8.91 8.91 4.097 16.692 7.476 20.788 8.91 10.035 3.788 21.913 5.836 31.744 5.836h24.37a3.19 3.19 0 0 0 3.175-3.174v-13.005c0-1.74-1.433-3.072-3.174-3.072h-24.781c-9.728 0-18.944-1.945-29.389-6.246 5.837-2.765 11.367-5.427 15.872-7.68 11.674-5.632 16.077-14.746 16.077-24.269v-8.192h26.112c1.74 0 3.072-1.434 3.072-2.97v-13.21c-0.205-1.74-1.536-3.071-3.277-3.071z m-50.176 24.985c0 5.428-1.024 9.626-7.885 13.108-5.53 2.764-14.54 7.065-22.732 10.854-8.192-3.789-17.204-8.192-22.733-10.854-6.861-3.482-7.885-7.68-7.885-13.108v-5.734h61.133v5.734z m-256.717 4.916h20.583c1.536 0 2.56-1.23 1.74-2.765l-20.377-39.834c-0.82-1.536-2.662-2.867-5.12-2.867h-20.48c-1.536 0-2.56 1.229-1.74 2.867l20.48 39.834c0.511 1.433 2.457 2.765 4.914 2.765z m123.802 10.444h-66.662v-66.457h61.235c1.638 0 3.072-1.434 3.072-3.072V391.27c0-1.638-1.331-2.97-3.072-2.97H536.37c-1.638 0-3.072 1.332-3.072 2.97v12.903c0 1.638 1.331 3.072 3.072 3.072h61.235v66.457h-66.56c-1.638 0-3.072 1.434-3.072 2.97v13.62c0 1.638 1.332 3.071 3.072 3.071h66.56v25.6c0 1.639 1.332 3.072 3.072 3.072h20.378c1.638 0 3.072-1.433 3.072-3.072v-25.6h66.662c1.639 0 2.97-1.331 2.97-3.072v-13.619c-0.102-1.536-1.434-2.97-3.072-2.97z" fill="#EC6C00" p-id="15188"></path><path d="M408.883 678.912c0 2.56-2.15 4.71-4.71 4.71-2.663 0-4.71-2.048-4.71-4.71 0-2.56 2.15-4.71 4.71-4.71 2.662 0 4.71 2.15 4.71 4.71m217.088 0c0 2.56-2.15 4.71-4.71 4.71a4.698 4.698 0 0 1-4.71-4.71c0-2.56 2.15-4.71 4.71-4.71s4.71 2.15 4.71 4.71z m-335.77 24.78l-1.33-1.638c-11.674-5.324-19.661-11.366-23.86-18.022h21.504c1.331 0 2.253-1.126 2.253-2.56 0-1.331-0.82-2.458-2.253-2.458h-23.142v-7.68h15.667a4.589 4.589 0 0 0 4.608-4.608v-14.95c0-2.56-2.048-4.71-4.608-4.71h-35.942c-2.56 0-4.608 2.048-4.608 4.71v14.95a4.589 4.589 0 0 0 4.608 4.608h14.95v7.68h-21.197c-1.331 0-2.253 1.127-2.253 2.458 0 1.434 0.82 2.56 2.253 2.56h19.968c-3.584 5.53-10.957 11.366-22.016 17.51-1.229 0.82-1.433 2.15-0.614 3.892 1.024 1.536 2.15 1.945 3.584 1.33 9.625-5.12 16.384-10.649 20.275-16.69v20.48c0.102 1.536 1.024 2.56 2.765 2.56 1.638 0 2.56-0.922 2.662-2.56v-20.48c5.427 6.656 12.903 12.595 22.528 17.715l2.15 0.102 1.741-1.638 0.308-2.56z m-44.236-37.478a2.054 2.054 0 0 1-2.048-2.048v-9.523c0-1.126 0.921-2.048 2.048-2.048h30.31c1.127 0 2.15 0.922 2.15 2.048v9.523c0 1.127-0.921 2.048-2.15 2.048h-30.31z m-10.138-19.046l-2.048-1.434c-2.048-0.102-3.277 1.024-3.789 3.482-1.638 9.626-5.222 17.51-10.65 23.757-1.126 1.536-1.023 3.174 0.206 4.608l2.048 0.819 2.15-1.126c1.126-1.332 2.662-3.892 2.662-3.892v36.557c0.103 1.946 1.024 3.072 2.868 3.072 1.843 0 2.764-1.126 2.867-3.072v-46.49c2.048-4.915 3.379-9.318 3.993-13.311 0.308-1.23 0.103-2.15-0.307-2.97z m121.447 17.613h-21.402c-1.638 0.102-2.56 1.024-2.662 2.765 0.102 1.843 0.921 2.764 2.56 2.867h21.504c1.433-0.103 2.252-1.024 2.355-2.765-0.103-1.843-0.922-2.765-2.355-2.867z m8.806 40.345h-37.888c-1.638 0.103-2.56 1.024-2.662 2.663 0.102 1.74 0.921 2.662 2.457 2.765h37.99c1.434-0.103 2.253-1.024 2.356-2.663-0.103-1.843-0.82-2.662-2.253-2.765z m-8.397-29.696c-1.536 9.83-3.481 17.818-5.837 24.167-0.614 1.843-0.307 3.379 1.332 3.891 2.355 0.82 3.276-1.229 3.584-2.15 3.072-7.988 5.427-16.282 6.246-24.884 0.205-2.048-0.512-3.481-2.253-3.686-1.638-0.512-2.765 0.614-3.072 2.662z m-14.54-2.355c-1.639 0.41-2.253 1.741-1.844 3.584 1.536 5.837 2.867 12.288 3.687 19.251 0.307 1.946 1.33 3.072 3.072 2.868 1.638-0.205 2.355-1.536 2.15-3.482-0.717-7.373-2.048-14.029-3.789-19.968-0.614-1.843-1.74-2.662-3.277-2.253z m26.419-10.035l-1.844-1.638c-7.782-3.072-14.028-7.68-18.841-13.722-2.355-3.072-4.71-2.97-7.066 0.41-4.71 5.939-9.523 10.547-16.281 14.95-2.15 1.434-1.536 3.584-1.127 4.198 1.127 1.434 2.663 1.639 4.506 0.512 7.987-5.017 11.571-9.42 13.926-12.8 1.331-1.536 2.15-2.355 2.355-2.355 0.308 0 1.332 0.82 2.97 2.355 3.277 3.892 8.909 7.783 16.896 11.879l2.56 0.102 1.843-1.638 0.103-2.253z m-39.732 12.902c-1.536 0.615-1.843 1.946-1.024 3.79 3.38 7.27 5.735 13.926 7.066 19.762 0.512 1.844 1.638 2.868 3.277 2.458 1.536-0.307 2.253-1.638 1.843-3.686-1.229-6.452-3.789-13.21-7.373-20.583-1.024-1.74-2.355-2.457-3.789-1.74z m-5.427 2.253c-0.512-1.433-1.126-2.765-1.536-3.686l-0.921-1.946-0.308-1.74 0.103-1.537 2.867-13.414v-0.717l0.102-0.614c0.205-2.15 0.103-3.584-0.41-4.301-0.511-0.922-1.945-1.331-3.89-1.331h-10.343c-3.481 0-4.71 1.843-4.71 4.505v57.14c0 1.536 1.024 2.56 2.867 2.56s2.867-1.024 2.867-2.56v-54.068c0-1.536 0.615-2.15 1.946-2.15h4.096c1.024 0 1.74 0.512 1.74 1.74l-2.56 12.186-0.204 2.56c0 1.23 0.102 2.56 0.717 3.892l0.921 1.945c0.615 1.434 1.536 3.38 2.15 5.427 0.717 2.048 1.025 4.199 1.025 5.53 0 1.74-0.41 2.765-0.922 3.277s-0.922 0.819-2.253 0.921l-2.253-0.41c-1.433-0.306-2.867 0.41-3.276 1.946-0.41 1.434 0.41 2.97 1.843 3.277 1.229 0.307 2.457 0.615 3.686 0.615h0.103c2.457 0 4.915-0.922 6.553-2.663 1.639-1.843 2.15-4.3 2.15-6.963 0.103-3.174-1.023-6.554-2.15-9.42zM524.8 686.49l-2.15 1.126-2.048-0.82-0.82-2.15 1.024-2.252a72.032 72.032 0 0 0 11.162-16.692l1.74-1.843 2.254-0.102 1.638 1.843-0.205 2.56c-0.41 1.126-1.229 2.662-2.457 4.71l-0.82 1.332v35.942c-0.102 2.048-0.921 3.174-2.867 3.174-1.74 0-2.765-1.228-2.867-3.174v-27.648l-3.584 3.994z m6.656-38.708l1.74-1.74 2.254 0.102 1.536 1.946-0.308 2.457c-3.481 6.349-7.065 11.674-10.956 16.077l-2.048 1.024-2.15-0.717c-1.332-1.331-1.434-2.765-0.206-4.096 4.096-4.915 7.578-9.83 10.138-15.053z m12.595 17.92h41.063c1.74 0.103 2.764 0.922 2.764 2.868s-1.024 2.764-2.764 2.867h-8.192v30.003c0 5.632-1.639 8.909-5.12 10.035-3.584 1.331-9.933 0.717-19.15-1.843l-2.047-1.434-0.103-2.56 1.434-1.843c0.717-0.41 1.536-0.307 2.56 0 6.554 1.843 10.957 2.56 13.107 2.048 2.253-0.41 3.38-2.048 3.38-5.222v-29.287h-26.83c-1.843-0.102-2.867-0.921-2.867-2.97-0.204-1.74 0.922-2.662 2.765-2.662z m2.867-16.588h34.407c1.945 0 3.174 1.126 3.174 2.764 0 1.844-1.229 2.868-3.174 2.868h-34.407c-1.843-0.103-2.97-0.922-2.97-2.868 0-1.74 1.127-2.764 2.97-2.764z m-40.14 58.265l-1.741-1.843c-4.915-2.458-8.909-5.325-12.083-8.397l1.228-1.126c3.072-2.765 5.632-5.325 7.68-7.68 1.127-1.331 0.922-2.663-0.41-3.891l-2.047-0.615-1.843 1.127c-2.663 3.072-5.223 5.734-7.783 7.884-2.355-3.584-4.096-7.475-5.12-11.366h12.186a4.589 4.589 0 0 0 4.608-4.608v-23.962c0-2.56-2.048-4.71-4.608-4.71h-24.781c-2.56 0-4.608 2.048-4.608 4.71v54.375c0.102 5.427 2.458 7.168 7.066 5.222 2.764-1.536 6.144-4.198 10.035-8.294 1.331-1.639 1.229-3.175-0.103-4.71l-2.252-0.717-2.15 1.33c-1.946 2.458-4.097 4.404-6.247 5.838l-0.717 0.204-0.205-0.921v-23.86h5.94c3.071 13.108 10.854 22.836 23.244 28.877l2.56 0.512 1.946-1.33 0.205-2.049z m-33.997-51.814c0-1.127 0.921-2.048 2.048-2.048h19.046c1.127 0 2.048 0.921 2.048 2.048v6.656h-23.245v-6.656z m0 20.685v-8.602h23.245v6.554a2.054 2.054 0 0 1-2.048 2.048H472.78z m-21.709-19.047h12.288c1.638-0.102 2.56-0.921 2.56-2.662 0-1.741-1.024-2.663-2.56-2.765h-10.65c0.512-2.15 0.82-3.277 0.82-3.584 0.307-1.74-0.41-2.867-2.15-3.482-1.844-0.204-3.073 0.41-3.482 2.15-1.946 8.602-5.223 15.975-9.626 22.12-1.229 1.842-1.024 3.276 0.41 4.505l2.355 0.41 2.355-1.537 1.536-2.048H448v9.421h-7.27c-1.434 0.103-2.253 0.922-2.253 2.663 0 1.638 0.921 2.662 2.253 2.764H448v22.016c0 2.663 0.614 4.404 1.843 5.223s2.867 0.614 4.813-0.717c3.174-2.048 6.554-5.018 10.035-8.909 1.127-1.433 1.024-2.765-0.307-4.096l-2.15-0.614-1.946 1.126c-2.048 2.355-3.789 4.096-5.12 5.223l-1.434 0.41-0.41-1.127v-18.535h9.524c1.331-0.102 2.253-1.024 2.253-2.867 0-1.638-0.82-2.457-2.253-2.56h-9.523v-9.42h7.885c1.638-0.103 2.56-1.025 2.56-2.56 0-1.741-1.024-2.663-2.56-2.765h-13.824l0.614-1.127c1.638-2.867 2.56-5.017 3.072-6.656z m218.726-9.42v12.902h6.35c1.228 0 2.047 0.921 2.047 2.56s-0.819 2.56-2.048 2.56h-6.349v14.438c1.23-0.614 2.663-1.536 4.404-2.765l0.41-0.307c1.535-0.921 2.354-0.921 3.48 0.615l0.513 2.457-1.536 1.741c-3.38 2.048-5.837 3.584-7.373 4.3v19.56c0.102 5.529-3.38 7.167-10.342 4.914-1.946-0.716-2.663-2.048-2.458-3.788l1.331-1.844h2.458c2.867 1.23 3.993 1.024 3.993-0.307v-15.872l-0.307 0.205c-2.765 1.536-4.608 2.458-5.53 2.765-1.33 0.41-2.355-0.205-3.071-1.639-0.512-1.536-0.205-2.662 1.024-3.276l3.89-1.946c1.844-0.922 3.073-1.638 3.892-1.946v-17.203h-6.656c-1.331 0-2.048-0.921-2.048-2.56s0.82-2.56 2.048-2.56h6.656v-12.902c0-1.331 0.922-2.15 2.56-2.15 1.74-0.103 2.662 0.716 2.662 2.047z m41.063 26.623c2.355 0.103 3.993 0.82 4.813 2.356 0.819 1.536 0.614 3.481-0.512 5.939-3.175 6.963-7.476 12.595-12.596 16.793 5.94 3.482 12.186 5.53 18.842 6.452 1.946 0.41 2.867 1.536 2.867 3.481-0.307 1.741-1.433 2.458-3.379 2.253-9.83-1.74-17.715-4.506-23.45-8.5-5.836 3.585-12.8 6.247-20.684 8.193-2.048 0.41-3.482-0.205-4.199-1.639-0.512-1.843 0.205-3.072 2.048-3.686 7.27-1.843 13.107-4.096 17.715-6.758-3.788-3.482-7.372-7.68-10.956-12.903-1.127-1.843-0.922-3.379 0.512-4.608l2.457-0.307 2.048 1.638c3.38 5.325 6.963 9.421 11.264 12.903 5.632-4.199 9.523-8.807 11.776-13.927 0.512-1.33 0.205-2.048-0.717-2.15h-26.419c-1.229 0-2.253-0.922-2.253-2.765 0-1.74 0.922-2.765 2.253-2.765h28.57z m-21.197-26.726h16.589c3.379 0 5.017 1.536 4.915 4.71v11.367c0 1.024 0.102 1.74 0.41 1.945l1.843 0.41h6.349c1.945 0 2.867 0.922 2.867 2.56 0 1.74-1.127 2.662-2.867 2.765h-7.783c-2.457 0-4.096-0.41-4.915-1.434-0.82-0.819-1.229-2.662-1.229-5.632v-10.035c0-1.024-0.614-1.536-1.536-1.536H691.2c-1.331 0-2.048 0.512-1.843 1.638v4.301c0 6.451-2.97 11.264-9.421 15.258-1.843 0.921-3.38 0.921-4.403-0.512-1.127-1.536-0.512-3.072 1.126-4.096 5.325-2.97 7.68-6.861 7.578-11.879v-5.017c0-3.38 1.638-4.813 5.427-4.813z m81.715 36.454c-1.843 0-2.97 1.024-3.481 3.072-0.82 12.8-9.83 19.354-27.136 19.764-1.946 0.307-2.868 1.33-2.868 2.97 0.41 1.638 1.536 2.354 3.482 2.252 19.866-0.41 30.618-8.602 32.154-24.474 0.41-2.048-0.308-3.174-2.15-3.584z m-30.822-31.232l0.614 0.205c4.096 1.127 7.987 2.458 11.571 4.096 1.741 0.615 2.97 0.205 3.687-1.433l-0.103-2.048-1.638-1.536c-3.686-1.434-7.885-2.868-12.8-4.404-1.74-0.41-2.97 0.308-3.482 1.946-0.512 1.536 0.41 2.56 2.15 3.174z m0.921 23.962c6.247-2.662 11.572-5.632 15.872-8.806l1.434-2.048-0.614-2.253-2.048-1.024-2.356 1.024c-4.403 3.174-9.318 5.837-14.745 8.294-1.741 0.82-2.458 2.048-1.639 3.584 0.717 1.639 2.253 1.843 4.096 1.229z m61.44-4.096c-10.24-2.458-17.51-7.168-21.81-14.029 0.306-0.819 0.614-1.945 0.818-3.481h12.903c1.74 0 1.229 1.843-2.458 6.144-1.126 1.536-1.024 2.867 0.205 4.096 1.331 0.921 2.662 0.716 3.994-0.717 2.662-3.072 4.403-6.247 5.53-9.626 0.92-3.481-0.206-5.017-4.506-5.017H769.33l1.127-2.356 0.102-2.355-1.434-1.638c-1.638-0.615-2.867 0-3.584 1.638-1.638 3.891-4.3 7.578-7.884 11.162-1.332 1.433-1.536 2.765-0.512 3.993 1.228 1.127 2.662 1.024 4.198-0.102 1.331-1.126 2.97-2.867 4.915-5.427h9.523c-1.433 7.987-7.782 13.005-19.148 16.179-1.844 0.614-2.56 1.74-2.15 3.277 0.614 1.536 1.945 2.15 3.89 1.843 9.933-2.355 16.59-6.144 20.07-12.8 4.814 7.168 12.494 11.98 23.143 14.131l2.355-0.205 1.332-1.638c0.307-1.434-0.512-2.56-2.356-3.072z m-1.433 35.226c-9.319-5.018-17.306-8.397-24.064-10.138-1.741-0.41-2.97 0.102-3.687 1.536-0.41 1.638 0.205 2.765 1.844 3.38 8.294 2.354 16.179 5.631 23.654 10.137l2.253 0.512 1.638-1.434v-2.15l-1.638-1.843z m-56.423-7.373a2.862 2.862 0 0 0 2.868 2.867c1.536 0 2.867-1.331 2.867-2.867v-15.258c0-1.229 1.024-2.15 2.15-2.15H789.3c1.229 0 2.15 0.921 2.15 2.15v13.62a2.862 2.862 0 0 0 2.868 2.867 2.862 2.862 0 0 0 2.867-2.868v-16.384c0-2.662-2.15-4.812-4.915-4.812h-42.291a4.807 4.807 0 0 0-4.813 4.812v18.023z" fill="#FFFFFF" p-id="15189"></path></svg>