<?xml version="1.0" encoding="utf-8"?>
<!-- Generator: Adobe Illustrator 16.0.0, SVG Export Plug-In . SVG Version: 6.00 Build 0)  -->
<!DOCTYPE svg PUBLIC "-//W3C//DTD SVG 1.1//EN" "http://www.w3.org/Graphics/SVG/1.1/DTD/svg11.dtd">
<svg version="1.1" id="图形" xmlns="http://www.w3.org/2000/svg" xmlns:xlink="http://www.w3.org/1999/xlink" x="0px" y="0px"
	 width="1000.637px" height="1000.678px" viewBox="0 0 1000.637 1000.678" enable-background="new 0 0 1000.637 1000.678"
	 xml:space="preserve">
<g>
	<path fill="#F0CA4D" d="M891.97,500.882c0,216.174-175.259,391.454-391.405,391.454c-216.252,0-391.511-175.28-391.511-391.454
		c0-216.276,175.259-391.558,391.511-391.558C716.711,109.324,891.97,284.605,891.97,500.882L891.97,500.882z"/>
	<path fill="#E3B726" d="M774.285,461.309c0,64.799-52.487,117.296-117.179,117.296c-64.795,0-117.282-52.497-117.282-117.296
		c0-64.7,52.487-117.193,117.282-117.193C721.798,344.116,774.285,396.609,774.285,461.309L774.285,461.309z"/>
	<path fill="#E3B726" d="M465.37,461.309c0,64.799-52.486,117.296-117.179,117.296c-64.794,0-117.279-52.497-117.279-117.296
		c0-64.7,52.485-117.193,117.279-117.193C412.884,344.116,465.37,396.609,465.37,461.309L465.37,461.309z"/>
	<path fill="#E9F1DF" d="M463.334,438.013c0,64.799-52.485,117.296-117.279,117.296c-64.693,0-117.178-52.497-117.178-117.296
		c0-64.7,52.485-117.191,117.178-117.191C410.849,320.821,463.334,373.313,463.334,438.013L463.334,438.013z"/>
	<path fill="#2D0F13" d="M466.895,438.013c0,33.368-13.528,63.582-35.397,85.453s-52.08,35.403-85.442,35.403
		c-33.364,0-63.573-13.532-85.442-35.403c-21.768-21.871-35.296-52.085-35.296-85.453c0-33.368,13.528-63.58,35.296-85.453
		c21.869-21.77,52.078-35.299,85.442-35.299c33.363,0,63.573,13.529,85.442,35.299C453.367,374.433,466.895,404.645,466.895,438.013
		L466.895,438.013z M426.411,518.382c20.548-20.553,33.262-48.935,33.262-80.369c0-31.332-12.714-59.816-33.262-80.366
		c-20.546-20.55-48.926-33.266-80.355-33.266c-31.329,0-59.809,12.716-80.357,33.266c-20.546,20.549-33.262,49.034-33.262,80.366
		c0,31.435,12.716,59.816,33.262,80.369c20.548,20.55,49.028,33.262,80.357,33.262C377.485,551.644,405.865,538.932,426.411,518.382
		L426.411,518.382z"/>
	<path fill="#E9F1DF" d="M772.251,438.013c0,64.799-52.487,117.296-117.282,117.296c-64.691,0-117.178-52.497-117.178-117.296
		c0-64.7,52.486-117.191,117.178-117.191C719.764,320.821,772.251,373.313,772.251,438.013L772.251,438.013z"/>
	<path fill="#F0CA4D" d="M174.458,402.917c14.24,30.822,85.849,27.771,159.798-6.614c73.949-34.486,122.366-87.283,108.022-118.108
		c-14.341-30.722-85.95-27.771-159.899,6.714C208.432,319.294,160.116,372.193,174.458,402.917L174.458,402.917z"/>
	<path fill="#2D0F13" d="M192.259,418.176c11.8,4.272,24.31,4.984,36.619,4.272c12.307-0.61,24.514-2.645,36.517-5.392
		c24.004-5.594,47.297-14.139,69.573-24.618c22.276-10.478,43.74-22.992,63.269-38.048c9.766-7.528,19.021-15.666,27.26-24.821
		c8.239-9.054,15.562-19.329,19.225-31.231c-1.017,6.104-3.256,12.105-6.205,17.599c-2.95,5.595-6.511,10.885-10.275,15.869
		c-7.832,9.969-16.884,18.922-26.445,26.958c-19.327,16.278-41.094,29.4-63.777,40.185c-22.785,10.579-46.688,18.921-71.508,23.499
		c-12.41,2.34-25.023,3.663-37.634,3.459c-6.308-0.203-12.613-0.713-18.717-1.831C203.956,422.854,197.853,421.126,192.259,418.176
		L192.259,418.176z"/>
	<path fill="#22B573" d="M391.522,483.283c0,25.127-20.342,45.475-45.466,45.475c-25.023,0-45.365-20.348-45.365-45.475
		c0-25.127,20.342-45.473,45.365-45.473C371.179,437.81,391.522,458.156,391.522,483.283L391.522,483.283z"/>
	<path fill="#2D0F13" d="M395.082,483.283c0,13.529-5.492,25.836-14.341,34.689c-8.85,8.853-21.158,14.347-34.686,14.347
		c-13.529,0-25.735-5.494-34.686-14.347c-8.849-8.853-14.343-21.16-14.343-34.689s5.494-25.737,14.343-34.691
		c8.95-8.849,21.156-14.343,34.686-14.343c13.528,0,25.836,5.494,34.686,14.343C389.591,457.545,395.082,469.753,395.082,483.283
		L395.082,483.283z M375.654,512.889c7.629-7.531,12.309-18.01,12.309-29.606c0-11.495-4.68-21.974-12.309-29.604
		c-7.526-7.528-18.004-12.208-29.599-12.208c-11.495,0-21.972,4.68-29.6,12.208c-7.526,7.63-12.207,18.109-12.207,29.604
		c0,11.596,4.68,22.075,12.207,29.606c7.628,7.628,18.105,12.309,29.6,12.309C357.65,525.197,368.128,520.517,375.654,512.889
		L375.654,512.889z"/>
	<path fill="#22B573" d="M690.063,483.283c0,25.127-20.345,45.475-45.47,45.475c-25.122,0-45.467-20.348-45.467-45.475
		c0-25.127,20.345-45.473,45.467-45.473C669.718,437.81,690.063,458.156,690.063,483.283L690.063,483.283z"/>
	<path fill="#2D0F13" d="M775.812,438.013c0,33.368-13.53,63.582-35.4,85.453c-21.868,21.871-52.076,35.403-85.442,35.403
		c-33.363,0-63.572-13.532-85.442-35.403c-21.868-21.871-35.397-52.085-35.397-85.453c0-33.368,13.529-63.58,35.397-85.453
		c21.87-21.77,52.079-35.299,85.442-35.299c33.366,0,63.574,13.529,85.442,35.299C762.281,374.433,775.812,404.645,775.812,438.013
		L775.812,438.013z M735.327,518.382c20.546-20.553,33.262-48.935,33.262-80.369c0-31.332-12.716-59.816-33.262-80.366
		c-20.55-20.55-48.926-33.266-80.358-33.266c-31.329,0-59.81,12.716-80.355,33.266c-20.547,20.549-33.262,49.034-33.262,80.366
		c0,31.435,12.715,59.816,33.262,80.369c20.546,20.55,49.026,33.262,80.355,33.262C686.402,551.644,714.778,538.932,735.327,518.382
		L735.327,518.382z"/>
	<path fill="#F0CA4D" d="M823.92,402.917c-14.238,30.822-85.846,27.771-159.796-6.614
		c-73.947-34.486-122.366-87.283-108.023-118.108c14.344-30.722,85.95-27.771,159.897,6.714
		C789.949,319.294,838.263,372.193,823.92,402.917L823.92,402.917z"/>
	<path fill="#2D0F13" d="M810.293,418.176c-5.594,2.951-11.7,4.679-17.803,5.901c-6.203,1.118-12.51,1.627-18.817,1.831
		c-12.611,0.204-25.227-1.12-37.636-3.459c-24.716-4.578-48.722-12.919-71.507-23.499c-22.681-10.784-44.451-23.906-63.776-40.185
		c-9.563-8.036-18.613-16.989-26.343-26.958c-3.866-4.984-7.427-10.274-10.376-15.869c-2.951-5.494-5.188-11.495-6.206-17.599
		c3.661,11.902,10.987,22.177,19.225,31.231c8.241,9.155,17.497,17.293,27.261,24.821c19.53,15.056,40.991,27.57,63.269,38.048
		c22.274,10.479,45.567,19.023,69.573,24.618c12.003,2.747,24.211,4.781,36.517,5.392
		C785.982,423.16,798.492,422.448,810.293,418.176L810.293,418.176z"/>
	<path fill="#2D0F13" d="M465.98,452.357c0,10.172-1.424,19.837-3.663,29.501c-2.237,9.665-5.391,19.023-9.663,27.977
		c-8.239,17.899-20.853,33.873-36.517,45.675c-15.563,12.003-33.872,19.938-52.69,24.514c-18.919,4.68-38.448,6.21-57.673,5.903
		c19.225-0.306,38.653-2.44,57.165-7.628c18.512-5.188,36.21-13.429,50.96-25.536c14.851-12.003,26.447-27.775,33.872-45.167
		c3.764-8.648,6.509-17.803,8.442-27.061c1.831-9.257,2.848-18.819,2.644-27.975L465.98,452.357z"/>
	<path fill="#2D0F13" d="M542.266,452.561c-0.303,9.155,0.813,18.717,2.646,27.975c1.832,9.258,4.575,18.413,8.341,27.061
		c7.528,17.392,19.02,33.164,33.87,45.167c14.75,12.107,32.448,20.348,50.961,25.536c18.616,5.188,37.941,7.322,57.268,7.628
		c-19.326,0.307-38.756-1.224-57.675-5.903c-18.817-4.576-37.229-12.511-52.789-24.514c-15.664-11.802-28.179-27.775-36.517-45.675
		c-4.172-8.954-7.427-18.313-9.662-27.977c-2.139-9.665-3.665-19.329-3.665-29.501L542.266,452.561z"/>
	<path fill="#2D0F13" d="M371.179,483.283c0,13.936-11.189,25.127-25.124,25.127c-13.833,0-25.125-11.191-25.125-25.127
		c0-13.835,11.292-25.127,25.125-25.127C359.99,458.156,371.179,469.447,371.179,483.283L371.179,483.283z"/>
	<path fill="#2D0F13" d="M669.718,483.283c0,13.936-11.29,25.127-25.125,25.127c-13.832,0-25.122-11.191-25.122-25.127
		c0-13.835,11.29-25.127,25.122-25.127C658.428,458.156,669.718,469.447,669.718,483.283L669.718,483.283z"/>
	<path fill="#2D0F13" d="M274.853,380.637c6.306-2.137,12.41-4.477,18.512-6.917c6.103-2.441,12.207-5.087,18.004-8.037
		c5.798-2.951,11.494-6.205,16.681-10.072c5.188-3.865,10.07-8.239,13.834-13.835c-2.544,6.307-6.918,11.7-12.104,16.074
		c-5.087,4.375-10.885,7.935-16.784,10.986C300.893,374.839,288.077,378.908,274.853,380.637L274.853,380.637z"/>
	<path fill="#2D0F13" d="M733.088,380.637c-13.223-1.729-26.04-5.798-38.144-11.801c-5.9-3.051-11.696-6.611-16.784-10.986
		c-5.188-4.374-9.562-9.767-12.104-16.074c3.763,5.596,8.647,9.97,13.836,13.835c5.184,3.867,10.883,7.121,16.68,10.072
		c5.799,2.95,11.901,5.596,18.004,8.037S726.781,378.5,733.088,380.637L733.088,380.637z"/>
	<path fill="#2D0F13" d="M693.623,483.283c0,13.529-5.494,25.836-14.343,34.689c-8.85,8.853-21.158,14.347-34.688,14.347
		c-13.526,0-25.835-5.494-34.684-14.347c-8.85-8.853-14.344-21.16-14.344-34.689s5.494-25.737,14.344-34.691
		c8.849-8.849,21.157-14.343,34.684-14.343c13.529,0,25.838,5.494,34.688,14.343C688.129,457.545,693.623,469.753,693.623,483.283
		L693.623,483.283z M674.194,512.889c7.527-7.531,12.208-18.01,12.208-29.606c0-11.495-4.681-21.974-12.208-29.604
		c-7.524-7.528-18.005-12.208-29.601-12.208c-11.593,0-22.072,4.68-29.597,12.208c-7.528,7.63-12.208,18.109-12.208,29.604
		c0,11.596,4.68,22.075,12.208,29.606c7.524,7.628,18.004,12.309,29.597,12.309C656.189,525.197,666.669,520.517,674.194,512.889
		L674.194,512.889z"/>
	<path fill="#E3B726" d="M895.837,500.882c0-216.276-175.26-391.558-391.51-391.558c-116.568,0-221.235,50.967-292.946,131.842
		c65.201-48.627,146.168-77.417,233.747-77.417c216.249,0,391.508,175.282,391.508,391.56c0,99.591-37.229,190.538-98.562,259.613
		C833.889,743.51,895.837,629.468,895.837,500.882L895.837,500.882z"/>
	<path fill="#2D0F13" d="M897.364,500.882c0,109.56-44.351,208.747-116.264,280.674c-71.813,71.816-170.985,116.177-280.535,116.177
		c-109.653,0-208.827-44.36-280.639-116.177c-71.813-71.927-116.264-171.114-116.264-280.674
		c0-109.666,44.451-208.851,116.264-280.672c71.812-71.821,170.986-116.277,280.639-116.277
		c109.549,0,208.722,44.456,280.535,116.277C853.013,292.031,897.364,391.216,897.364,500.882L897.364,500.882z M773.573,773.927
		c69.879-69.889,113.009-166.434,113.009-273.045c0-106.612-43.13-203.154-113.009-273.043
		c-69.88-69.888-166.41-113.122-273.007-113.122c-106.703,0-203.131,43.234-273.011,113.122
		c-69.879,69.89-113.109,166.431-113.109,273.043c0,106.611,43.23,203.156,113.109,273.045
		c69.879,69.883,166.308,113.02,273.011,113.02C607.162,886.946,703.693,843.81,773.573,773.927L773.573,773.927z"/>
	<path fill="#2D0F13" d="M354.498,750.631c-1.22,3.046-4.781,4.68-7.935,3.456c-3.152-1.224-4.678-4.68-3.458-7.83
		c14.544-38.15,37.026-70.3,64.59-92.679c26.955-21.871,58.792-34.485,92.87-34.485c34.785,0,67.233,13.227,94.594,36.009
		c27.872,23.199,50.452,56.565,64.59,96.037c1.12,3.15-0.507,6.613-3.661,7.732c-3.153,1.113-6.609-0.515-7.729-3.664
		c-13.429-37.435-34.788-68.875-61.03-90.843c-25.125-20.96-54.927-33.067-86.763-33.067c-31.229,0-60.421,11.6-85.138,31.739
		C389.488,684.101,368.229,714.413,354.498,750.631L354.498,750.631z"/>
</g>
</svg>
