<?xml version="1.0" encoding="utf-8"?>
<!-- Generator: Adobe Illustrator 16.0.0, SVG Export Plug-In . SVG Version: 6.00 Build 0)  -->
<!DOCTYPE svg PUBLIC "-//W3C//DTD SVG 1.1//EN" "http://www.w3.org/Graphics/SVG/1.1/DTD/svg11.dtd">
<svg version="1.1" id="图形" xmlns="http://www.w3.org/2000/svg" xmlns:xlink="http://www.w3.org/1999/xlink" x="0px" y="0px"
	 width="1000.637px" height="1000.678px" viewBox="0 0 1000.637 1000.678" enable-background="new 0 0 1000.637 1000.678"
	 xml:space="preserve">
<g>
	<path fill-rule="evenodd" clip-rule="evenodd" fill="#FFFFFF" d="M531.753,820.838c181.257,0,329.162-147.852,329.162-329.129
		c0-181.348-147.905-329.202-329.162-329.202c-181.254,0-329.09,147.854-329.09,329.202
		C202.663,672.986,350.499,820.838,531.753,820.838L531.753,820.838z"/>
	<path fill="#45506C" d="M495.574,153.796c-1.912,0.283-3.753-0.991-4.036-2.974c-0.283-1.912,1.061-3.683,2.973-3.966
		c70.521-10.976,141.958,1.346,203.984,33.494c60.395,31.299,111.797,81.434,144.367,147.005c0.85,1.771,0.14,3.895-1.559,4.744
		c-1.77,0.851-3.895,0.142-4.744-1.558c-31.932-64.226-82.201-113.298-141.322-143.889
		C634.561,155.142,564.606,143.104,495.574,153.796L495.574,153.796z M862.048,401.07c-0.496-1.912,0.709-3.752,2.621-4.249
		c1.91-0.425,3.821,0.779,4.248,2.691c7.575,32.291,10.124,65.005,8.001,97.227c-2.125,32.853-9.204,65.145-20.746,95.806
		c-0.707,1.771-2.689,2.691-4.531,2.052c-1.842-0.706-2.762-2.759-2.053-4.604c11.257-29.953,18.196-61.534,20.318-93.681
		C871.962,464.8,869.484,432.723,862.048,401.07L862.048,401.07z M550.022,800.444c1.981-0.067,3.541,1.491,3.61,3.471
		c0,1.912-1.559,3.544-3.541,3.544c-62.872,0.847-124.683-16.217-177.998-48.789c-51.614-31.513-95.3-77.47-124.188-135.605
		c-7.93-15.936-14.373-32.146-19.542-48.508c-5.31-16.782-9.133-33.705-11.683-50.769c-0.283-1.912,1.063-3.684,2.975-3.969
		c1.982-0.281,3.752,1.064,4.036,2.977c2.477,16.642,6.23,33.279,11.398,49.636c5.027,16.076,11.4,31.938,19.117,47.516
		c28.321,56.863,71.016,101.9,121.569,132.701C427.958,784.514,488.493,801.224,550.022,800.444L550.022,800.444z M230.559,393.918
		c-0.496,1.912-2.407,3.044-4.249,2.55c-1.911-0.496-3.043-2.408-2.548-4.319c4.885-18.836,11.399-37.247,19.471-55.021
		c8.071-17.632,17.7-34.627,28.745-50.701c1.134-1.629,3.328-2.054,4.957-0.921c1.558,1.133,1.982,3.328,0.85,4.886
		c-10.833,15.791-20.25,32.362-28.108,49.639C241.746,357.451,235.373,375.437,230.559,393.918L230.559,393.918z"/>
	<path fill="#45506C" d="M336.055,534.195c-0.07-1.912,1.487-3.538,3.469-3.538c1.912,0,3.541,1.554,3.541,3.466l0.283,18.061
		c0,1.979-1.559,3.538-3.47,3.538c-1.983,0.073-3.611-1.486-3.611-3.471L336.055,534.195z"/>
	<path fill="#45506C" d="M308.23,567.267c-1.912,0.068-3.54-1.491-3.611-3.471c0-1.912,1.558-3.543,3.47-3.611l18.054-0.353
		c1.912,0,3.541,1.554,3.611,3.466c0,1.984-1.557,3.543-3.469,3.61L308.23,567.267z"/>
	<path fill="#45506C" d="M341.436,594.883c0.07,1.912-1.487,3.538-3.398,3.611c-1.983,0-3.611-1.56-3.611-3.471l-0.496-18.056
		c-0.07-1.912,1.487-3.544,3.47-3.611c1.912,0,3.54,1.554,3.54,3.466L341.436,594.883z"/>
	<path fill="#45506C" d="M368.837,561.458c1.912-0.072,3.54,1.486,3.611,3.398c0.07,1.984-1.487,3.61-3.398,3.684l-18.056,0.566
		c-1.911,0.072-3.54-1.486-3.611-3.398c-0.07-1.984,1.487-3.611,3.399-3.684L368.837,561.458z"/>
	<path fill="#45506C" d="M871.465,320.558c0-1.983,1.56-3.541,3.469-3.612c1.984,0,3.541,1.559,3.611,3.47l0.213,18.058
		c0,1.982-1.559,3.54-3.469,3.611c-1.981,0-3.541-1.558-3.541-3.541L871.465,320.558z"/>
	<path fill="#45506C" d="M843.712,353.556c-1.985,0.071-3.611-1.487-3.611-3.47c-0.072-1.912,1.486-3.541,3.468-3.541l17.983-0.353
		c1.984-0.072,3.611,1.486,3.611,3.398c0.072,1.983-1.486,3.612-3.469,3.612L843.712,353.556z"/>
	<path fill="#45506C" d="M876.918,381.172c0,1.912-1.559,3.541-3.471,3.611c-1.982,0-3.541-1.487-3.611-3.47l-0.496-17.986
		c0-1.982,1.489-3.611,3.471-3.611c1.912-0.071,3.539,1.487,3.611,3.399L876.918,381.172z"/>
	<path fill="#45506C" d="M904.246,347.749c1.982-0.071,3.611,1.487,3.611,3.399c0.072,1.982-1.416,3.611-3.398,3.681l-17.982,0.568
		c-1.982,0.07-3.611-1.487-3.682-3.399c-0.072-1.982,1.486-3.611,3.398-3.611L904.246,347.749z"/>
	<path fill="#45506C" d="M704.725,720.216c5.098,0,9.912,1.206,14.232,3.398c2.901,1.418,5.593,3.33,7.929,5.596
		c3.188-4.531,7.292-8.354,12.108-11.187c5.947-3.544,12.956-5.596,20.392-5.596c10.974,0,20.885,4.391,28.106,11.612
		c6.443,6.375,10.693,14.943,11.543,24.503h27.967c1.982,0,3.538,1.627,3.538,3.539c0,1.984-1.556,3.543-3.538,3.543h-31.367
		c-1.91,0-3.539-1.559-3.539-3.543c0-0.068,0-0.141,0.07-0.281c-0.143-8.854-3.824-16.928-9.63-22.804
		c-5.947-5.877-14.089-9.487-23.15-9.487c-6.16,0-11.896,1.626-16.78,4.603c-5.1,2.973-9.277,7.363-12.039,12.605
		c-0.283,0.426-0.566,0.847-1.06,1.2c-0.709,0.566-1.629,0.779-2.551,0.712l0,0c-0.92-0.146-1.77-0.639-2.406-1.418
		c-2.266-3.045-5.311-5.597-8.781-7.295c-3.325-1.627-7.079-2.619-11.044-2.619c-6.796,0-12.958,2.764-17.419,7.154
		c-4.458,4.318-7.292,10.335-7.503,16.991c0,0.072,0,0.145,0,0.213c0,1.912-1.559,3.543-3.541,3.543h-28.886
		c-1.985,0-3.541-1.631-3.541-3.543c0-1.98,1.556-3.539,3.541-3.539h25.629c0.922-7.295,4.319-13.811,9.347-18.694
		C688.086,723.76,696.017,720.216,704.725,720.216L704.725,720.216z"/>
	<path fill="#45506C" d="M149.49,437.396c2.974,0,5.735,0.708,8.284,1.912c1.7,0.85,3.258,1.982,4.602,3.258
		c1.842-2.62,4.249-4.815,7.011-6.444c3.468-2.125,7.504-3.328,11.823-3.328c6.373,0,12.107,2.62,16.285,6.798
		c3.752,3.682,6.16,8.639,6.726,14.232h16.213c1.133,0,2.054,0.921,2.054,2.054c0,1.134-0.921,2.054-2.054,2.054h-18.196
		c-1.133,0-2.054-0.92-2.054-2.054c0-0.07,0-0.142,0-0.212c-0.07-5.17-2.195-9.843-5.593-13.171
		c-3.398-3.469-8.142-5.594-13.382-5.594c-3.611,0-6.938,0.992-9.771,2.691c-2.902,1.771-5.31,4.319-6.938,7.293
		c-0.142,0.283-0.354,0.566-0.638,0.708c-0.425,0.354-0.919,0.496-1.487,0.425l0,0c-0.495-0.07-0.991-0.354-1.344-0.778
		c-1.346-1.771-3.115-3.258-5.099-4.249c-1.982-0.991-4.106-1.487-6.443-1.487c-3.964,0-7.505,1.557-10.124,4.107
		c-2.55,2.549-4.177,6.02-4.319,9.842c0,0.071,0,0.071,0,0.142c0,1.133-0.921,2.054-2.054,2.054h-16.78
		c-1.132,0-2.054-0.921-2.054-2.054s0.921-2.054,2.054-2.054h14.868c0.566-4.249,2.55-8.001,5.452-10.833
		C139.861,439.378,144.463,437.396,149.49,437.396L149.49,437.396z"/>
	<path fill="#45506C" d="M224.824,473.936c3.894,0,7.504,0.919,10.762,2.548c2.266,1.134,4.319,2.548,6.088,4.319
		c2.408-3.471,5.523-6.372,9.134-8.497c4.602-2.762,9.913-4.32,15.576-4.32c8.285,0,15.86,3.399,21.312,8.852
		c4.885,4.816,8.142,11.399,8.779,18.622h21.241c1.487,0,2.69,1.205,2.69,2.691s-1.203,2.691-2.69,2.691h-23.789
		c-1.487,0-2.691-1.205-2.691-2.691c0-0.072,0-0.141,0-0.213c-0.07-6.729-2.832-12.886-7.292-17.276
		c-4.531-4.532-10.762-7.295-17.559-7.295c-4.744,0-9.063,1.274-12.814,3.544c-3.824,2.265-7.011,5.591-9.134,9.555
		c-0.142,0.358-0.425,0.64-0.778,0.925c-0.566,0.421-1.275,0.566-1.912,0.494l0,0c-0.708-0.073-1.416-0.427-1.84-0.993
		c-1.771-2.338-4.036-4.25-6.656-5.596c-2.548-1.272-5.452-1.979-8.425-1.979c-5.168,0-9.842,2.053-13.24,5.45
		c-3.398,3.258-5.523,7.861-5.665,12.891c0,0.068,0,0.068,0,0.141c0,1.486-1.203,2.691-2.69,2.691h-22.02
		c-1.486,0-2.69-1.205-2.69-2.691s1.204-2.691,2.69-2.691h19.542c0.708-5.523,3.258-10.479,7.081-14.163
		C212.22,476.627,218.169,473.936,224.824,473.936L224.824,473.936z"/>
	<path fill="#45506C" d="M169.315,666.33c0-1.912,1.557-3.538,3.469-3.538c1.982-0.073,3.54,1.554,3.611,3.466l0.211,18.061
		c0.072,1.912-1.486,3.538-3.468,3.538c-1.912,0-3.541-1.559-3.541-3.471L169.315,666.33z"/>
	<path fill="#45506C" d="M141.559,699.396c-1.982,0-3.611-1.554-3.611-3.466c-0.07-1.984,1.487-3.543,3.469-3.611l17.984-0.358
		c1.982,0,3.611,1.491,3.611,3.471c0.07,1.912-1.487,3.544-3.47,3.611L141.559,699.396z"/>
	<path fill="#45506C" d="M174.766,726.944c0,1.985-1.486,3.611-3.47,3.611c-1.911,0.072-3.54-1.486-3.611-3.398l-0.495-18.056
		c0-1.912,1.487-3.543,3.47-3.61c1.911-0.073,3.54,1.485,3.611,3.466L174.766,726.944z"/>
	<path fill="#45506C" d="M202.096,693.593c1.982-0.073,3.611,1.418,3.681,3.397c0,1.912-1.486,3.544-3.469,3.611l-17.983,0.64
		c-1.983,0.067-3.611-1.486-3.683-3.471c-0.07-1.912,1.487-3.539,3.469-3.611L202.096,693.593z"/>
	<path fill="#45506C" d="M804.063,134.678c3.821,0,7.503,0.919,10.76,2.548c2.266,1.133,4.32,2.55,6.09,4.32
		c2.408-3.471,5.523-6.374,9.135-8.498c4.53-2.762,9.841-4.32,15.504-4.32c8.355,0,15.931,3.399,21.384,8.852
		c4.884,4.815,8.071,11.401,8.778,18.624h21.24c1.489,0,2.691,1.204,2.691,2.691c0,1.486-1.202,2.69-2.691,2.69h-23.789
		c-1.485,0-2.691-1.204-2.691-2.69c0-0.071,0-0.143,0-0.213c-0.07-6.727-2.901-12.888-7.292-17.278
		c-4.531-4.531-10.761-7.292-17.63-7.292c-4.674,0-8.991,1.274-12.743,3.54c-3.823,2.267-7.011,5.595-9.134,9.561
		c-0.213,0.353-0.426,0.636-0.779,0.919c-0.566,0.425-1.275,0.566-1.912,0.496h-0.07c-0.637-0.071-1.346-0.425-1.77-0.991
		c-1.771-2.336-4.037-4.249-6.726-5.594c-2.479-1.274-5.383-1.982-8.354-1.982c-5.17,0-9.844,2.054-13.242,5.452
		c-3.398,3.258-5.523,7.86-5.663,12.888c0,0.07,0,0.07,0,0.142c0,1.487-1.203,2.69-2.691,2.69h-22.021
		c-1.486,0-2.688-1.203-2.688-2.69s1.202-2.691,2.688-2.691h19.542c0.709-5.523,3.258-10.48,7.082-14.162
		C791.457,137.368,797.406,134.678,804.063,134.678L804.063,134.678z"/>
	<path fill-rule="evenodd" clip-rule="evenodd" fill="#FFFFFF" d="M463.288,457.365c0,47.583,38.516,86.105,86.023,86.105l0,0
		c47.581,0,86.099-38.522,86.099-86.105l0,0c0-47.515-38.518-86.036-86.099-86.036l0,0
		C501.804,371.329,463.288,409.851,463.288,457.365L463.288,457.365z"/>
	<path fill="#45506C" d="M374.996,182.404c0-1.629,1.346-3.045,2.975-3.045c1.699,0,3.043,1.346,3.115,2.975l0.212,15.437
		c0,1.699-1.344,3.044-3.043,3.115c-1.629,0-2.975-1.344-3.045-3.045L374.996,182.404z"/>
	<path fill="#45506C" d="M351.207,210.729c-1.699,0-3.045-1.274-3.115-2.975c0-1.628,1.345-3.044,2.974-3.044l15.505-0.354
		c1.629,0,3.045,1.274,3.045,2.974c0.07,1.7-1.274,3.044-2.975,3.116L351.207,210.729z"/>
	<path fill="#45506C" d="M379.67,234.38c0,1.629-1.274,3.045-2.975,3.045c-1.628,0.07-3.044-1.275-3.044-2.903l-0.424-15.437
		c-0.072-1.7,1.274-3.116,2.902-3.116c1.699-0.07,3.116,1.274,3.116,2.975L379.67,234.38z"/>
	<path fill="#45506C" d="M403.106,205.772c1.699-0.071,3.044,1.204,3.115,2.903c0.07,1.699-1.274,3.044-2.903,3.116l-15.436,0.495
		c-1.699,0.071-3.115-1.274-3.115-2.903c-0.07-1.699,1.204-3.044,2.903-3.115L403.106,205.772z"/>
	<path fill="#45506C" d="M776.519,667.463c2.832,0,5.523,0.639,7.93,1.84c1.628,0.779,3.117,1.844,4.39,3.117
		c1.77-2.479,4.037-4.604,6.727-6.23c3.328-1.984,7.152-3.117,11.329-3.117c6.09,0,11.61,2.479,15.577,6.443
		c3.609,3.543,5.947,8.354,6.443,13.67h15.574c1.063,0,1.912,0.847,1.912,1.979c0,1.065-0.85,1.912-1.912,1.912h-17.416
		c-1.133,0-1.982-0.847-1.982-1.912c0-0.067,0-0.141,0-0.213c-0.07-4.884-2.125-9.415-5.381-12.605
		c-3.258-3.325-7.788-5.31-12.815-5.31c-3.397,0-6.585,0.92-9.347,2.551c-2.832,1.699-5.098,4.104-6.656,7.01
		c-0.141,0.213-0.354,0.493-0.566,0.639c-0.424,0.354-0.92,0.493-1.416,0.426l0,0c-0.566-0.072-1.06-0.358-1.343-0.779
		c-1.275-1.699-2.975-3.117-4.887-4.037c-1.842-0.92-3.965-1.486-6.16-1.486c-3.751,0-7.222,1.554-9.7,3.965
		c-2.479,2.405-4.035,5.736-4.105,9.415c0,0.072,0,0.072,0,0.146c0,1.06-0.922,1.979-1.984,1.979h-16.07
		c-1.133,0-1.982-0.92-1.982-1.979c0-1.065,0.85-1.985,1.982-1.985h14.231c0.566-4.037,2.405-7.647,5.167-10.407
		C767.315,669.375,771.705,667.463,776.519,667.463L776.519,667.463z"/>
	<path fill="#FFC73F" d="M701.468,583.691c0,0-29.879-39.863-29.879-39.936c0,0-0.637-1.133-2.619-1.771L544.641,506.86
		c-0.922-0.208-1.842-0.208-2.762,0l-124.33,35.124c0,0-1.699,0.498-2.69,1.844c-0.425,0.566-29.809,39.863-29.809,39.863
		c-0.708,0.852-0.991,1.984-0.991,3.044c0,0.499,0.071,1.065,0.213,1.56c0.495,1.559,1.699,2.764,3.256,3.33l26.268,8.921v71.38
		c0,2.053,1.274,3.965,3.187,4.744l124.33,51.335c0.354,0.213,0.777,0.426,1.912,0.426l0,0h0.07c1.133,0,1.912-0.426,1.912-0.426
		l124.329-51.335c1.912-0.779,3.115-2.691,3.115-4.744v-71.38l26.338-8.921c1.559-0.566,2.762-1.771,3.258-3.33
		c0.143-0.494,0.213-1.061,0.213-1.56C702.46,585.676,702.104,584.543,701.468,583.691L701.468,583.691z"/>
	<polygon fill="#FFD55C" points="397.511,584.117 420.947,552.817 430.435,555.441 483.821,570.166 534.304,584.049 
		504.707,620.514 	"/>
	<path fill="#FFD55C" d="M538.125,715.612l-114.062-47.089v-64.507l80.715,27.403c0.566,0.213,1.133,0.285,1.628,0.285
		c1.559,0,3.046-0.712,4.036-1.912l27.683-34.131V715.612z"/>
	<polygon fill="#FFFFFF" points="543.225,575.835 438.082,546.873 543.225,517.2 648.436,546.873 	"/>
	<path fill="#FFB734" d="M662.384,668.523l-113.991,47.089v-119.95l27.684,34.131c0.992,1.2,2.478,1.912,3.964,1.912
		c0.566,0,1.133-0.072,1.699-0.285l80.645-27.403V668.523z"/>
	<polygon fill="#FFB734" points="581.812,620.514 552.217,584.049 665.499,552.817 689.008,584.117 	"/>
	<g>
		<defs>
			<polygon id="SVGID_1_" points="543.225,575.835 477.661,557.774 402.964,525.202 353.544,333.658 484.529,224.112 
				608.22,227.937 663.73,237.85 711.522,320.345 691.2,423.659 668.12,498.932 648.436,546.873 			"/>
		</defs>
		<clipPath id="SVGID_2_">
			<use xlink:href="#SVGID_1_"  overflow="visible"/>
		</clipPath>
		<path clip-path="url(#SVGID_2_)" fill="#FFC8A6" d="M617.99,358.301c-1.132,0.636-2.831,0.991-5.167,1.061
			c-8.498,0.213-8.001-4.602-8.001-10.267c0-5.665,3.61-10.268,8.001-10.268c0.637,0,1.203,0.071,1.84,0.283
			c-2.549-1.771-17.771-10.55-21.028,26.909l-0.85,47.16h-56.076l24.003,113.016l27.613-35.617c0,0,23.082-42.701,32.004-56.934
			C626.416,423.872,621.602,382.872,617.99,358.301L617.99,358.301z"/>
		<rect x="500.246" y="486.113" clip-path="url(#SVGID_2_)" fill="#FFC8A6" width="88.079" height="52.545"/>
		<path clip-path="url(#SVGID_2_)" fill="#F9BE9D" d="M617.99,358.301c-1.132,0.636-2.831,0.991-5.167,1.061
			c-2.195,0.071-3.754-0.212-4.887-0.778c0.143,6.939-0.354,13.808,0.283,20.747c1.699,17.137,4.178,30.167,1.063,45.178
			c-3.185,15.438-14.302,37.319-23.859,49.781c-8.215,10.691-17.985,21.172-29.738,28.181l5.027,23.725l27.613-35.617
			c0,0,23.082-42.701,32.004-56.934C626.416,423.872,621.602,382.872,617.99,358.301L617.99,358.301z"/>
		<path clip-path="url(#SVGID_2_)" fill="#FFDFD5" d="M604.823,349.095c0,5.665-0.497,10.48,8.001,10.267
			c2.336-0.07,4.035-0.425,5.167-1.061c-1.628-11.189-2.972-18.978-2.972-18.978s-0.143-0.071-0.355-0.213
			c-0.637-0.212-1.203-0.283-1.84-0.283C608.433,338.827,604.823,343.43,604.823,349.095L604.823,349.095z"/>
		<rect x="543.012" y="486.113" clip-path="url(#SVGID_2_)" fill="#F9BE9D" width="45.313" height="52.545"/>
		<path clip-path="url(#SVGID_2_)" fill="#2C3F49" d="M593.635,472.732c0,9.843-7.151,17.845-16,17.845h-74.697
			c-8.851,0-16.002-8.002-16.002-17.845V304.767c0-9.914,7.151-17.915,16.002-17.915h74.697c8.849,0,16,8.001,16,17.915V472.732z"/>
		<polygon clip-path="url(#SVGID_2_)" fill="#00DCED" points="586.556,461.259 586.556,304.767 586.556,304.625 494.016,304.625 
			494.016,304.767 494.016,461.259 		"/>
		<path clip-path="url(#SVGID_2_)" fill="#FFC8A6" d="M504.707,464.022c4.319,3.964,4.249,10.976-0.07,15.648
			c-4.319,4.744-11.329,5.31-15.577,1.418l-29.808-27.477c-4.249-3.965-4.249-10.976,0.07-15.649
			c4.319-4.744,11.328-5.311,15.577-1.416L504.707,464.022z"/>
		<path clip-path="url(#SVGID_2_)" fill="#FFC8A6" d="M504.779,421.322c3.753,3.471,3.328,10.055-0.991,14.8
			c-4.391,4.674-10.905,5.665-14.656,2.195l-26.197-24.076c-3.753-3.47-3.257-10.055,1.063-14.8
			c4.319-4.673,10.903-5.665,14.656-2.195L504.779,421.322z"/>
		<path clip-path="url(#SVGID_2_)" fill="#FFC8A6" d="M507.044,379.968c3.468,3.187,2.832,9.63-1.487,14.304
			c-4.39,4.744-10.691,5.948-14.16,2.69l-24.286-22.375c-3.47-3.187-2.832-9.63,1.487-14.304c4.389-4.744,10.69-5.877,14.16-2.691
			L507.044,379.968z"/>
		<path clip-path="url(#SVGID_2_)" fill="#FFC8A6" d="M486.936,324.239c0,0-19.613-19.614-29.382-10.691
			c-9.771,8.921,8,30.236,29.382,40.929V324.239z"/>
		<path clip-path="url(#SVGID_2_)" fill="#FFDFD5" d="M499.822,466.429c4.036,3.966,5.169,9.276,2.62,11.824
			c-2.549,2.551-7.859,1.418-11.825-2.618c-4.036-4.037-7.434-6.869-2.69-11.897C492.671,458.711,495.786,462.394,499.822,466.429
			L499.822,466.429z"/>
		<path clip-path="url(#SVGID_2_)" fill="#FFDFD5" d="M497.343,420.969c4.036,4.036,5.17,9.347,2.691,11.896
			c-2.548,2.55-7.93,1.346-11.895-2.69c-4.036-3.966-7.435-6.799-2.691-11.826C490.193,413.32,493.308,417.003,497.343,420.969
			L497.343,420.969z"/>
		<path clip-path="url(#SVGID_2_)" fill="#FFDFD5" d="M500.884,380.04c4.036,4.036,5.239,9.346,2.69,11.896
			c-2.549,2.549-7.859,1.346-11.895-2.62c-4.036-4.036-7.434-6.869-2.62-11.897C493.803,372.392,496.918,376.074,500.884,380.04
			L500.884,380.04z"/>
		<rect x="493.45" y="520.53" clip-path="url(#SVGID_2_)" fill="#FFFFFF" width="98.417" height="7.716"/>
		<rect x="495.219" y="552.537" clip-path="url(#SVGID_2_)" fill="#2C3F49" width="95.441" height="24.357"/>
		<rect x="499.043" y="555.083" clip-path="url(#SVGID_2_)" fill="#375968" width="3.54" height="19.546"/>
		<rect x="506.619" y="555.083" clip-path="url(#SVGID_2_)" fill="#375968" width="3.609" height="19.546"/>
		<rect x="514.266" y="555.083" clip-path="url(#SVGID_2_)" fill="#375968" width="3.611" height="19.546"/>
		<rect x="521.911" y="555.083" clip-path="url(#SVGID_2_)" fill="#375968" width="3.541" height="19.546"/>
		<rect x="529.488" y="555.083" clip-path="url(#SVGID_2_)" fill="#375968" width="3.611" height="19.546"/>
		<rect x="537.136" y="555.083" clip-path="url(#SVGID_2_)" fill="#375968" width="3.538" height="19.546"/>
		<rect x="544.711" y="555.083" clip-path="url(#SVGID_2_)" fill="#375968" width="3.611" height="19.546"/>
		<rect x="552.357" y="555.083" clip-path="url(#SVGID_2_)" fill="#375968" width="3.541" height="19.546"/>
		<rect x="559.933" y="555.083" clip-path="url(#SVGID_2_)" fill="#375968" width="3.61" height="19.546"/>
		<rect x="567.58" y="555.083" clip-path="url(#SVGID_2_)" fill="#375968" width="3.611" height="19.546"/>
		<rect x="575.227" y="555.083" clip-path="url(#SVGID_2_)" fill="#375968" width="3.541" height="19.546"/>
		<rect x="582.802" y="555.083" clip-path="url(#SVGID_2_)" fill="#375968" width="3.611" height="19.546"/>
		<rect x="486.936" y="527.046" clip-path="url(#SVGID_2_)" fill="#375968" width="116.824" height="29.102"/>
		<path clip-path="url(#SVGID_2_)" fill="#FBF0E3" d="M599.016,540.711c0,4.25-3.469,7.716-7.716,7.716
			c-4.25,0-7.719-3.466-7.719-7.716s3.469-7.721,7.719-7.721C595.547,532.99,599.016,536.461,599.016,540.711L599.016,540.711z"/>
		<path clip-path="url(#SVGID_2_)" fill="#375968" d="M590.591,538.872c0,0.847-0.637,1.485-1.486,1.485
			c-0.779,0-1.416-0.639-1.416-1.485c0-0.78,0.637-1.419,1.416-1.419C589.954,537.453,590.591,538.092,590.591,538.872
			L590.591,538.872z"/>
		<path clip-path="url(#SVGID_2_)" fill="#375968" d="M594.698,538.872c0,0.847-0.636,1.485-1.416,1.485
			c-0.849,0-1.488-0.639-1.488-1.485c0-0.78,0.64-1.419,1.488-1.419C594.062,537.453,594.698,538.092,594.698,538.872
			L594.698,538.872z"/>
		<path clip-path="url(#SVGID_2_)" fill="#375968" d="M590.591,542.764c0,0.779-0.637,1.486-1.486,1.486
			c-0.779,0-1.416-0.707-1.416-1.486s0.637-1.414,1.416-1.414C589.954,541.35,590.591,541.984,590.591,542.764L590.591,542.764z"/>
		<path clip-path="url(#SVGID_2_)" fill="#375968" d="M594.698,542.764c0,0.779-0.636,1.486-1.416,1.486
			c-0.849,0-1.488-0.707-1.488-1.486s0.64-1.414,1.488-1.414C594.062,541.35,594.698,541.984,594.698,542.764L594.698,542.764z"/>
		<path clip-path="url(#SVGID_2_)" fill="#FFB031" d="M629.108,288.692c0,1.133-0.92,2.054-2.053,2.054H613.32
			c-1.135,0-2.125-0.921-2.125-2.054v-13.738c0-1.203,0.99-2.124,2.125-2.124h13.735c1.133,0,2.053,0.921,2.053,2.124V288.692z"/>
		<path clip-path="url(#SVGID_2_)" fill="#FFFFFF" d="M619.336,286.78c-0.353,0-0.636-0.212-0.919-0.495l-2.904-3.824
			c-0.354-0.497-0.283-1.274,0.213-1.629c0.496-0.355,1.202-0.283,1.629,0.213l1.912,2.548l4.884-7.79
			c0.283-0.495,0.992-0.708,1.559-0.354c0.496,0.354,0.707,1.063,0.354,1.558l-5.733,9.206c-0.213,0.354-0.566,0.566-0.923,0.566
			C619.406,286.78,619.406,286.78,619.336,286.78L619.336,286.78z"/>
		<path clip-path="url(#SVGID_2_)" fill="#FFB031" d="M653.11,502.615c0,2.266-1.842,4.105-4.178,4.105h-27.613
			c-2.266,0-4.104-1.84-4.104-4.105v-27.617c0-2.267,1.839-4.179,4.104-4.179h27.613c2.336,0,4.178,1.912,4.178,4.179V502.615z"/>
		<path clip-path="url(#SVGID_2_)" fill="#FFFFFF" d="M643.482,492.629c-0.283-0.493-0.639-1.133-0.779-1.699
			c-0.213-0.852-0.779-0.072-0.85,0.494c0,0.499-0.355,0.925-1.063,0.146c-0.709-0.779-0.85-0.64-1.063-0.64
			s-0.637,0.566-0.566,3.045c0.07,1.771,0.779,2.053,1.203,2.125c-0.777,0.64-1.77,1.061-2.902,1.346
			c-4.177,1.061-8.425-0.852-10.407-4.676c-1.842-3.611-0.992-7.648,0.92-9.841c0.07,0.426,0.07,0.779,0.143,1.133
			c0.141,0.992,0,1.912-0.143,2.904c-0.07,0.213-0.07,0.426,0,0.634c0,0.146,0.213,0.286,0.283,0.286
			c0.143,0,0.283-0.141,0.283-0.286c0.07-0.141,0.07-0.354,0.143-0.566c0-0.141,0-0.354,0-0.566
			c0.141,0.146,0.283,0.213,0.354,0.286c0.213,0.28,0.496,0.493,0.707,0.706c0.072,0.141,0.143,0.286,0.143,0.427
			c0,0.28,0.141,0.493,0.283,0.706c0.141,0.286,0.283,0.566,0.354,0.853c0.07,0.14,0.07,0.28,0.143,0.353
			c0.07,0.281,0.283,0.427,0.566,0.494c0.354,0,0.424,0.146,0.493,0.426c-0.069,0-0.14,0.073-0.21,0.073
			c-0.426,0-0.639,0.213-0.639,0.566c0.072,0.779,0.355,1.485,0.922,2.052c0.141,0.141,0.354,0.281,0.493,0.426
			c0.356,0.354,0.496,0.78,0.286,1.201c-0.072,0.285-0.143,0.498-0.213,0.711c0,0.281,0,0.494,0,0.779
			c0.07,0.214,0.07,0.779,0.283,0.707c0.496-0.072,0.706,0,0.779-0.493c0-0.073,0-0.073,0-0.214
			c-0.143-0.426,0.424-1.771,0.776-2.057c0.356-0.208,0.64-0.421,0.923-0.635c0.423-0.353,0.636-0.852,0.423-1.346
			c-0.14-0.498,0.07-0.852,0.354-1.205c0.356-0.354,0.639-0.706,0.566-1.205c0-0.494-0.354-0.847-0.776-0.847
			c-0.214,0.072-0.356,0.14-0.566,0.213c-0.356,0.067-0.64,0.213-0.923,0.28c-0.423,0.072-0.706-0.213-0.919-0.566
			c-0.141-0.213-0.214-0.28-0.497-0.067c-0.21,0.141-0.423,0.28-0.636,0.421c-0.283,0.146-0.427,0.072-0.566-0.141
			c-0.144-0.14-0.283-0.213-0.426-0.28c-0.141-0.073-0.283-0.073-0.354-0.146c-0.07-0.141-0.283-0.28-0.213-0.421
			c0-0.146,0.143-0.286,0.283-0.358c0.213-0.067,0.496-0.141,0.779-0.141c0.143-0.067,0.283-0.067,0.426-0.14
			c0.141-0.073,0.141-0.141,0-0.286c-0.073-0.067-0.143-0.067-0.213-0.141c-0.427-0.14-0.779-0.28-1.203-0.426
			c-0.072-0.067-0.143-0.141-0.283-0.141c-0.213-0.213-0.213-0.353,0-0.566c0.85-0.779,1.84-0.992,2.762,0
			c0.283,0.354,0.493,0.78,0.776,1.065c0.213,0.28,0.427,0.566,0.71,0.707c0.069,0.14,0.353,0.14,0.496,0.067
			c0.14-0.141,0.14-0.354,0.069-0.494c-0.069-0.213-0.213-0.353-0.282-0.493c-0.497-0.639-0.497-1.984,0.496-2.479
			c0.353-0.213,0.706-0.426,0.85-0.925c-0.144,0.073-0.283,0.146-0.427,0.146c-0.779,0.28-0.283-0.286,0.07-0.426
			c0.213-0.073-0.141-0.213-0.141-0.213s0.214-0.073,0.497-0.213c0.21-0.068,0.423-0.214,0.565-0.281
			c0.141-0.146,0.211-0.285,0.283-0.426l-0.072-0.073c-0.211,0.073-0.424,0.073-0.637,0.073c-0.354,0.072-0.423,0-0.423-0.354
			c-0.073-0.213-0.283-0.354-0.497-0.213c-0.143,0.072-0.283,0.141-0.426,0.28c-0.354,0.213-0.637,0.146-0.706-0.28
			c-0.144-0.213-0.214-0.286-0.427-0.141c-0.14,0.068-0.21,0.141-0.283,0.213c-0.21,0.141-0.353,0.208-0.566,0.281
			c-0.14,0.072-0.423,0.14-0.493-0.073c-0.143-0.208-0.072-0.421,0.141-0.566c0.213-0.14,0.426-0.28,0.636-0.421
			c0.356-0.213,0.71-0.358,1.063-0.566c0.214-0.145,0.354-0.426,0.214-0.711c0-0.213-0.214-0.281-0.427-0.213
			c-0.21,0.145-0.353,0.285-0.566,0.357c-0.14,0-0.283,0-0.423,0c-0.07,0-0.144-0.145-0.144-0.213c0-0.072,0.144-0.145,0.214-0.213
			c0.426-0.072,0.919-0.141,1.346-0.141c0.069,0,0.213,0,0.213,0.068c0.283,0.354,0.776,0.566,1.202,0.706
			c0.354,0.146,0.424,0.073,0.496-0.353c0.494-0.068,0.99-0.354,1.486,0c0.283,0.145,0.496,0.353,0.709,0.566
			c0.07,0.072,0.07,0.285,0,0.353c0,0.146-0.072,0.286-0.143,0.499c-0.07,0.28,0.143,0.494,0.426,0.494c0.07,0,0.211,0,0.283,0
			c0.283-0.068,0.354,0.072,0.354,0.353c0,0.427,0.07,0.427,0.424,0.358c0.143,0,0.283,0.068,0.355,0.068
			c0.07,0.072,0.141,0.14,0.211,0.14c0.355,0.286,0.709,0.213,0.779-0.28c0-0.073,0-0.073,0-0.141
			c0.07-0.213,0.213-0.285,0.354-0.146c0.283,0.358,0.566,0.712,0.852,0.993c-0.285,0.353-0.355,0.706-0.285,1.064
			c0.143,0.354,0,0.707-0.141,1.061c-0.143,0.353-0.354,0.706-0.426,1.06c-0.141,0.499,0,0.712,0.566,0.853
			c0.496,0.14,0.568,0.213,0.568,0.706c0.07,0.712,0.424,1.133,0.99,1.419c0.143,0.072,0.283,0.14,0.426,0.213
			C644.259,490.504,643.976,491.569,643.482,492.629L643.482,492.629z M645.674,487.106c-0.14-1.772-0.849-3.398-1.909-4.885
			c-1.701-2.338-4.037-3.756-6.869-4.25c-0.566-0.141-1.202-0.141-1.769-0.213h-0.144c-0.496,0.072-1.063,0.072-1.629,0.141
			c-5.521,0.852-9.487,6.089-8.849,11.685c0.283,2.691,1.416,4.957,3.398,6.729c2.336,2.193,5.098,3.113,8.282,2.76
			c2.408-0.213,4.533-1.201,6.303-2.904C645.038,493.689,646.101,490.645,645.674,487.106L645.674,487.106z"/>
		<path clip-path="url(#SVGID_2_)" fill="#FF5A1F" d="M673.571,370.409c0,1.558-1.202,2.762-2.688,2.762h-18.409
			c-1.488,0-2.762-1.204-2.762-2.762v-18.341c0-1.558,1.273-2.762,2.762-2.762h18.409c1.486,0,2.688,1.204,2.688,2.762V370.409z"/>
		<path clip-path="url(#SVGID_2_)" fill="#FFFFFF" d="M663.59,366.727h2.548v0.638h-2.548v0.211h-2.762v-0.211h-3.117v-0.638h3.117
			v-0.283h0.776v-0.85h1.206v0.85h0.779V366.727z M666.988,364.249h-9.134c-1.629,0-2.975-1.274-2.975-2.903
			c0-1.346,0.85-2.479,2.125-2.833l0.354-0.142l-0.07-0.283c-0.07-0.211-0.07-0.425-0.07-0.636c0-1.629,1.273-2.975,2.902-2.975
			c1.346,0,2.478,0.921,2.831,2.195l0.073,0.353l0.354-0.07c0.14,0,0.213,0,0.282,0c0.99,0,1.912,0.496,2.479,1.274l0.141,0.213
			h0.213c0.213-0.072,0.354-0.072,0.496-0.072c1.629,0,2.973,1.346,2.973,2.975S668.616,364.249,666.988,364.249L666.988,364.249z
			 M666.988,357.591c-0.072,0-0.213,0-0.355,0c-0.707-0.919-1.84-1.416-2.973-1.416c-0.565-1.487-1.981-2.478-3.54-2.478
			c-2.053,0-3.682,1.7-3.682,3.754c0,0.14,0,0.283,0,0.425c-1.416,0.566-2.336,1.911-2.336,3.469c0,2.054,1.699,3.681,3.752,3.681
			h9.134c2.053,0,3.752-1.627,3.752-3.681S669.04,357.591,666.988,357.591L666.988,357.591z"/>
		<path clip-path="url(#SVGID_2_)" fill="#FF5A1F" d="M470.792,519.751c0,2.125-1.769,3.824-3.894,3.824h-25.702
			c-2.124,0-3.894-1.699-3.894-3.824v-25.776c0-2.125,1.771-3.824,3.894-3.824h25.702c2.125,0,3.894,1.699,3.894,3.824V519.751z"/>
		<path clip-path="url(#SVGID_2_)" fill="#FFFFFF" d="M454.296,513.942c-14.727-8.069-4.036-18.056,0-11.327
			C458.403,495.887,469.023,505.873,454.296,513.942L454.296,513.942z"/>
		<path clip-path="url(#SVGID_2_)" fill="#69C52B" d="M447.923,403.903c0,2.973-2.407,5.382-5.38,5.382h-35.827
			c-2.973,0-5.38-2.409-5.38-5.382v-35.83c0-2.975,2.407-5.382,5.38-5.382h35.827c2.974,0,5.38,2.407,5.38,5.382V403.903z"/>
		<path clip-path="url(#SVGID_2_)" fill="#FFFFFF" d="M425.762,389.954h0.566c-2.479,1.132-5.452,0.708-7.505-1.276
			c-2.549-2.62-2.549-6.797,0-9.417c0.071,0,0.071,0,0.142-0.071l-0.708-0.708h2.479v2.55l-0.638-0.638c0,0-0.07,0-0.07,0.071
			c-1.982,1.911-1.982,5.099,0,7.011c1.558,1.557,3.894,1.911,5.735,0.991V389.954z M428.241,379.26c2.548,2.62,2.548,6.798,0,9.417
			c-0.072,0-0.072,0-0.142,0.072l0.708,0.708h-2.479v-2.55l0.636,0.638c0.072,0,0.072,0,0.072-0.07c1.982-1.912,1.982-5.1,0-7.011
			c-1.487-1.559-3.823-1.842-5.665-0.992v-1.486h-0.636C423.142,376.852,426.187,377.278,428.241,379.26L428.241,379.26z
			 M432.134,397.176H415v-27.05h17.134V397.176z M423.567,400.362c-0.708,0-1.204-0.566-1.204-1.204
			c0-0.636,0.496-1.203,1.204-1.203c0.638,0,1.133,0.566,1.133,1.203C424.7,399.795,424.205,400.362,423.567,400.362
			L423.567,400.362z M421.019,368.073h5.027c0.142,0,0.283,0.142,0.283,0.283c0,0.141-0.142,0.283-0.283,0.283h-5.027
			c-0.142,0-0.283-0.142-0.283-0.283C420.736,368.214,420.877,368.073,421.019,368.073L421.019,368.073z M431.356,366.372h-15.647
			c-1.346,0-2.407,1.063-2.407,2.337v30.449c0,1.346,1.061,2.408,2.407,2.408h15.647c1.346,0,2.407-1.063,2.407-2.408v-30.449
			C433.763,367.435,432.701,366.372,431.356,366.372L431.356,366.372z"/>
		<path clip-path="url(#SVGID_2_)" fill-rule="evenodd" clip-rule="evenodd" fill="#FFFFFF" d="M540.25,482.643
			c3.398,0,6.09-2.759,6.09-6.088c0-3.398-2.691-6.089-6.09-6.089c-3.328,0-6.089,2.691-6.089,6.089
			C534.161,479.884,536.922,482.643,540.25,482.643L540.25,482.643z"/>
		<path clip-path="url(#SVGID_2_)" fill="#FFFFFF" d="M536.853,383.934c-5.383,0-9.771-4.32-9.771-9.56
			c0-5.311,4.389-9.559,9.771-9.559c5.38,0,9.771,4.249,9.771,9.559C546.623,379.614,542.233,383.934,536.853,383.934
			L536.853,383.934z M557.738,367.505l-0.281-0.07l-1.063-2.548l0.141-0.213c3.188-7.294,2.975-7.507,2.479-8.001l-4.318-4.178
			c-0.143-0.213-0.426-0.284-0.709-0.284s-0.989,0-7.292,2.833l-0.213,0.142l-2.619-1.063l-0.07-0.283
			c-2.975-7.294-3.328-7.294-4.037-7.294h-6.017c-0.709,0-1.063,0-3.824,7.294l-0.07,0.283l-2.621,1.063l-0.213-0.072
			c-4.317-1.84-6.796-2.761-7.433-2.761c-0.283,0-0.566,0.143-0.709,0.283l-4.318,4.179c-0.496,0.566-0.779,0.778,2.619,7.86
			l0.143,0.283l-1.063,2.548l-0.283,0.071c-7.505,2.903-7.505,3.187-7.505,3.966v5.876c0,0.779,0,1.063,7.505,3.754l0.283,0.142
			l1.063,2.479l-0.143,0.283c-3.186,7.222-2.973,7.435-2.406,7.93l4.248,4.179c0.141,0.212,0.496,0.283,0.779,0.283
			c0.211,0,0.92,0,7.22-2.833l0.285-0.07l2.549,0.991l0.141,0.283c2.975,7.364,3.258,7.364,3.964,7.364h6.09
			c0.709,0,1.063,0,3.824-7.364l0.07-0.283l2.619-1.063l0.213,0.142c4.247,1.771,6.726,2.691,7.364,2.691
			c0.283,0,0.566-0.142,0.777-0.283l4.25-4.179c0.566-0.566,0.777-0.778-2.551-7.86l-0.141-0.283l1.063-2.479l0.211-0.142
			c7.505-2.903,7.505-3.187,7.505-3.966v-5.876C565.242,370.479,565.242,370.196,557.738,367.505L557.738,367.505z"/>
		<path clip-path="url(#SVGID_2_)" fill="#FFFFFF" d="M560.925,404.681c-2.053,0-3.824,1.7-3.824,3.754
			c0,2.124,1.771,3.752,3.824,3.752c2.125,0,3.824-1.629,3.824-3.752C564.749,406.381,563.05,404.681,560.925,404.681
			L560.925,404.681z M569.137,411.125l-0.141,0.071l-0.354,0.991v0.071c1.273,2.832,1.203,2.903,0.99,3.115l-1.699,1.629
			c-0.07,0.07-0.143,0.142-0.283,0.142c-0.07,0-0.354,0-2.832-1.133h-0.143l-0.989,0.354v0.142
			c-1.206,2.833-1.346,2.833-1.629,2.833h-2.336c-0.283,0-0.426,0-1.488-2.833l-0.07-0.142l-0.992-0.425l-0.07,0.071
			c-1.699,0.708-2.689,1.062-2.902,1.062c-0.143,0-0.213-0.07-0.283-0.141l-1.698-1.629c-0.214-0.213-0.283-0.283,0.989-3.045
			l0.073-0.143l-0.427-0.991h-0.07c-2.974-1.133-2.974-1.274-2.974-1.558v-2.336c0-0.283,0-0.425,2.974-1.416l0.07-0.071
			l0.427-0.991v-0.071c-1.276-2.832-1.206-2.974-0.993-3.187l1.699-1.627c0.07-0.072,0.143-0.072,0.283-0.072
			c0.07,0,0.354,0,2.832,1.133h0.07l1.063-0.425v-0.07c1.205-2.903,1.275-2.903,1.559-2.903h2.405c0.283,0,0.427,0,1.489,2.903
			v0.142l1.063,0.353h0.069c1.699-0.708,2.691-1.061,2.902-1.061c0.143,0,0.213,0,0.283,0.07l1.699,1.699
			c0.213,0.213,0.283,0.283-1.061,3.045v0.071l0.424,0.991l0.07,0.071c2.975,1.133,2.975,1.274,2.975,1.558v2.265
			C572.112,409.992,572.112,410.064,569.137,411.125L569.137,411.125z"/>
	</g>
</g>
</svg>
