<?xml version="1.0" standalone="no"?><!DOCTYPE svg PUBLIC "-//W3C//DTD SVG 1.1//EN" "http://www.w3.org/Graphics/SVG/1.1/DTD/svg11.dtd"><svg t="1493952322171" class="icon" style="" viewBox="0 0 1024 1024" version="1.1" xmlns="http://www.w3.org/2000/svg" p-id="5475" xmlns:xlink="http://www.w3.org/1999/xlink" width="200" height="200"><defs><style type="text/css"></style></defs><path d="M1023.91 508.634c0-131.264-177.881-237.67-397.299-237.67-175.629 0-324.646 68.274-377.05 162.79v-0.09a58.266 58.266 0 0 0-7.564 28.352c0 23.565 14.86 44.544 38.067 58.24l201.408 116.262a75.52 75.52 0 0 0 36.262 9.05 76.07 76.07 0 0 0 36.301-8.998l191.027-110.362c12.916-7.462 21.082-19.123 21.082-32.154 0-12.646-7.731-23.872-19.942-31.398l-71.028-41.05-157.452 90.868-119.079-68.826c45.99-41.446 131.738-69.35 229.927-69.35 146.803 0 265.856 62.336 265.856 139.29-3.15 119.103-177.805 211.263-390.016 205.76-212.263-5.62-381.748-106.817-378.65-225.895h-0.051c1.497-157.069 207.424-282.445 459.827-279.987 22.554 0.243 44.557 1.433 66.1 3.596-51.777-19.097-116.468-30.438-186.868-30.438-56.205 0-108.864 7.283-154.138 19.904C127.974 256.666 0 373.068 0 508.634c0 181.542 229.222 328.742 512 328.742s512-147.2 512-328.742h-0.09z" fill="#004186" p-id="5476"></path></svg>