<?xml version="1.0" standalone="no"?><!DOCTYPE svg PUBLIC "-//W3C//DTD SVG 1.1//EN" "http://www.w3.org/Graphics/SVG/1.1/DTD/svg11.dtd"><svg t="1493952332613" class="icon" style="" viewBox="0 0 1024 1024" version="1.1" xmlns="http://www.w3.org/2000/svg" p-id="6162" xmlns:xlink="http://www.w3.org/1999/xlink" width="200" height="200"><defs><style type="text/css"></style></defs><path d="M469.566768 718.978723l138.815805-350.670719 144.833232 350.670719H469.566768zM178.862817 718.978723l138.815805-350.670719 144.833232 350.670719H178.862817zM1008.645187 639.092199l-5.809929 19.919756h-92.958865l-9.544883-19.919756h108.313677M1014.662614 610.872543h-126.15846l-9.337386-21.164742h139.023303M1021.51003 561.488146H867.339412l-9.337386-21.372239h165.997974M1024 511.896251h-177.825329l-8.299899-21.164741h186.125228M1021.51003 462.511854h-196.500101l-8.299899-21.164742h202.517528M1014.662614 413.127457H805.090172l-9.544883-21.164742h214.344883" fill="#E41E26" p-id="6163"></path><path d="M512.103749 0h20.957244l22.409726 2.282472 21.164742 1.244985 20.127254 3.527457 21.164742 3.527457 19.919757 4.564944 20.127254 6.017427 19.919757 5.809929 9.337386 3.527457 9.544883 3.527457 18.88227 8.299898 18.674772 8.299899 17.637285 9.337386 17.637284 9.337386 17.844783 10.582371 16.392299 11.827355 16.599798 11.827356 15.147315 11.827356 15.354812 12.864843 15.354813 14.109827 14.109828 14.109828 14.109828 14.109828 12.864843 15.354812 6.017426 8.299899 5.809929 8.092401 12.864843 16.599798 10.789868 16.3923 10.582371 16.599797 10.374874 17.637285 8.299898 18.674772 9.544884 17.844782 7.054914 18.674772 7.054913 20.127254 7.054914 18.88227H783.925431L648.429585 47.101925l-141.098278 356.688146L358.970618 50.629382 97.731307 724.99615l118.896049 148.360689h604.855116l110.59615-161.433029-10.582371-24.692199h71.794124l-7.054914 18.882269-8.299899 17.637285-8.092401 17.637285-8.299899 16.599797-10.58237 17.637285-9.337386 16.3923-11.827356 15.354812-10.582371 15.147315-11.827355 15.562311-12.864843 15.147315-12.864843 13.07234-14.317326 14.109828-14.109827 12.864843-14.109828 13.07234-15.147315 11.827356-15.354813 11.619858-15.354812 10.582371-16.3923 10.582371-16.599798 9.337386-17.637284 9.544883-17.637285 8.092401-17.637285 7.262412-18.882269 7.054914-17.637285 7.054913-18.882269 5.809929-19.919757 4.772442-18.88227 4.772442-19.919757 3.527457-9.337386 1.037487-10.789868 1.244985-19.919757 2.282472-20.127254 1.244985h-46.894428l-25.937183-2.48997-25.937183-3.319959-25.937184-4.772442-24.692198-6.017426-23.447214-5.809929-23.654711-8.299899-23.654712-9.337386-22.202229-10.582371-22.409726-10.582371-10.582371-7.054914-10.582371-5.809929-21.164741-13.07234-20.127255-14.109828-19.919757-15.147315-9.337386-8.299899-8.299898-8.299898-9.337386-8.299899-8.299899-8.299899-17.637285-17.637284-16.599797-18.674772-6.847416-9.544884-7.262412-10.582371-15.147315-19.919757L81.13151 788.490375l-7.054914-10.582371-5.809929-10.582371L62.24924 755.498278 50.629382 734.541033l-10.582371-23.654711-8.299899-22.409726-8.299898-24.692199-7.054914-23.447214-3.527457-13.07234-2.282472-11.619858-2.282472-13.072341-2.48997-12.864843-3.527457-24.692198-1.244985-27.182168L0 524.968592v-13.072341l1.037487-25.729686 1.244985-26.144681 3.527457-25.729685 4.772442-25.937184 5.809929-24.692198 7.054914-23.654712 8.299898-23.447213 8.299899-23.447214 10.582371-22.409727 11.619858-22.409726 6.017427-10.582371 5.809929-10.582371 13.07234-21.164741 15.147315-20.127255 14.109828-19.919757 8.299899-9.337386 8.299898-8.299898 8.299899-9.337386 9.337386-8.299899 17.637285-17.637285 17.637284-16.599797 10.582371-7.054914 9.337386-7.054914 20.127255-15.147315 10.58237-6.017426 10.582371-7.054914 10.582371-6.017427L268.294225 62.24924l22.409726-11.619858 22.202229-10.582371 23.654712-9.544883 23.654711-7.054914 23.447214-7.054914 12.864843-3.527457 11.827355-2.282472L421.219858 8.299899l13.072341-2.48997 25.937183-3.527457 25.937183-1.244985L499.031408 0h13.072341z" fill="#E41E26" p-id="6164"></path></svg>