<?xml version="1.0" standalone="no"?><!DOCTYPE svg PUBLIC "-//W3C//DTD SVG 1.1//EN" "http://www.w3.org/Graphics/SVG/1.1/DTD/svg11.dtd"><svg t="1493952481996" class="icon" style="" viewBox="0 0 1024 1024" version="1.1" xmlns="http://www.w3.org/2000/svg" p-id="11562" xmlns:xlink="http://www.w3.org/1999/xlink" width="200" height="200"><defs><style type="text/css"></style></defs><path d="M1023 493C1016.4 313.4 904.5 191.1 904.5 191.1c-173-201.2-395-182.4-395-182.4C272.4 1.1 126.7 180 126.7 180c-99.8 118.4-111 227.6-111 227.6-44.3 183.3 47.9 341.3 47.9 341.3 68.6 124.1 141 181.5 258.7 236 117.6 54.6 296.3 47.1 407.3-8.4 111-55.6 178.7-116.7 240.8-232.3 61.9-115.7 52.6-251.2 52.6-251.2zM172.7 720.8s-88.4-126-51.8-283.1c36.7-157 122.3-220 139.2-236 17-16 126.6-81.4 201.3-80.1v187.2h-79s-107.2 6.6-111 125.1v173s2.8 106.3 113.8 118.5h76.2v184.4s-186.2-10.3-288.7-189z m224.8-105.3s-18.8 4.7-21.6-16.9V432.9s2.8-17.8 16.9-17.8h232.3s19.8-3.9 21.7 17.9v160.8s4.8 25.4-14.1 21.7H397.5z m452.4 121.2c-75.3 114.8-218.2 167.5-285 173V725.4h88.4s94.1-18.8 99.8-116.7V412.2S738 313.5 633.7 308.8H565V121.6h0.1s117.6 9.3 212.5 96.9c95 87.4 119.4 174.9 129.8 222 10.2 47 17.8 181.4-57.5 296.2z" fill="#FF0000" p-id="11563"></path></svg>