<?xml version="1.0" standalone="no"?><!DOCTYPE svg PUBLIC "-//W3C//DTD SVG 1.1//EN" "http://www.w3.org/Graphics/SVG/1.1/DTD/svg11.dtd"><svg t="1493952245228" class="icon" style="" viewBox="0 0 1024 1024" version="1.1" xmlns="http://www.w3.org/2000/svg" p-id="2856" xmlns:xlink="http://www.w3.org/1999/xlink" width="200" height="200"><defs><style type="text/css"></style></defs><path d="M616.423 330.253V906.93c28.184-7.226 54.922-16.62 80.938-29.629V217.52c-8.672 3.613-25.293 11.562-39.024 22.402-27.46 21.68-41.914 49.863-41.914 90.332M380.116 239.92c-13.73-10.84-30.352-18.789-39.024-22.402V877.3c25.293 12.285 52.754 22.403 80.938 29.63V330.252c0-40.469-14.453-68.652-41.914-90.332" fill="#D7000F" p-id="2857"></path><path d="M680.74 138.027c-49.14-21.68-104.063-33.242-161.152-33.242s-111.289 11.562-160.43 32.52c-7.948 4.335-18.066 11.562-18.066 23.847 0 21.68 29.63 16.62 67.207 46.972 34.688 27.461 52.754 66.484 52.754 109.844v596.189a398.905 398.905 0 0 0 58.535 4.336c20.234 0 39.746-1.446 58.535-4.336v-596.19c0-43.359 18.066-82.382 52.754-109.843 37.577-29.629 67.206-25.293 67.206-46.972 0-11.563-10.117-19.512-17.343-23.125" fill="#D7000F" p-id="2858"></path><path d="M519.588 947.399c-240.644 0-436.483-195.117-436.483-436.483S278.222 74.433 519.588 74.433c240.643 0 436.483 195.117 436.483 436.483S760.23 947.399 519.588 947.399m0-911.266c-263.046 0-476.229 212.46-476.229 475.506s213.183 475.506 475.506 475.506c263.046 0 475.506-213.183 475.506-475.506 0.723-263.046-212.46-475.506-474.783-475.506" fill="#D7000F" p-id="2859"></path><path d="M112.734 511.639c0 144.53 75.156 271.717 189.335 343.26V543.435c-46.25 1.446-63.593 28.907-68.652 40.469-4.336 8.672-7.226 18.066-15.176 18.066-13.73 0-24.57-39.023-24.57-86.718s10.84-86.718 24.57-86.718c7.95 0 10.84 9.394 15.176 18.066 5.059 10.84 22.402 39.023 68.652 39.746v-318.69C187.89 239.92 112.734 367.108 112.734 511.639m747.224 72.265c-4.336 8.672-7.227 18.066-15.176 18.066-13.73 0-24.57-39.023-24.57-86.718s10.84-86.718 24.57-86.718c7.95 0 10.84 9.394 15.176 18.066 5.058 10.84 21.68 37.578 65.761 39.746-7.95-134.414-80.937-250.761-187.89-318.69v687.243c104.785-66.484 177.05-180.663 187.89-311.464-44.804 2.891-60.703 29.63-65.761 40.469" fill="#D7000F" p-id="2860"></path></svg>